<?xml version="1.0" encoding="UTF-8" standalone="no"?>
<!-- Created with Inkscape (http://www.inkscape.org/) -->

<svg
   xmlns:dc="http://purl.org/dc/elements/1.1/"
   xmlns:cc="http://creativecommons.org/ns#"
   xmlns:rdf="http://www.w3.org/1999/02/22-rdf-syntax-ns#"
   xmlns:svg="http://www.w3.org/2000/svg"
   xmlns="http://www.w3.org/2000/svg"
   xmlns:xlink="http://www.w3.org/1999/xlink"
   xmlns:sodipodi="http://sodipodi.sourceforge.net/DTD/sodipodi-0.dtd"
   xmlns:inkscape="http://www.inkscape.org/namespaces/inkscape"
   version="1.1"
   id="svg2"
   xml:space="preserve"
   width="906.53229"
   height="233.39124"
   viewBox="0 0 906.53229 233.39123"
   sodipodi:docname="bacalao-logo-with-name.svg"
   inkscape:version="0.92.3 (d244b95, 2018-08-02)"
   inkscape:export-filename="/home/rf/Documents/Webdesign-2018/merchandise-stock-management-app/logo/bacalao-logo-with-name.png"
   inkscape:export-xdpi="96"
   inkscape:export-ydpi="96"><metadata
     id="metadata8"><rdf:RDF><cc:Work
         rdf:about=""><dc:format>image/svg+xml</dc:format><dc:type
           rdf:resource="http://purl.org/dc/dcmitype/StillImage" /><dc:title /></cc:Work></rdf:RDF></metadata><defs
     id="defs6"><linearGradient
       id="linearGradient870"
       inkscape:collect="always"><stop
         id="stop866"
         offset="0"
         style="stop-color:#0000ff;stop-opacity:1" /><stop
         id="stop868"
         offset="1"
         style="stop-color:#ff00ff;stop-opacity:1" /></linearGradient><linearGradient
       inkscape:collect="always"
       id="linearGradient851"><stop
         style="stop-color:#0000ff;stop-opacity:1"
         offset="0"
         id="stop847" /><stop
         style="stop-color:#ff00ff;stop-opacity:1"
         offset="1"
         id="stop849" /></linearGradient><linearGradient
       inkscape:collect="always"
       xlink:href="#linearGradient851"
       id="linearGradient853"
       x1="-85.500999"
       y1="3.0207112"
       x2="86.901001"
       y2="3.0207112"
       gradientUnits="userSpaceOnUse" /><linearGradient
       inkscape:collect="always"
       xlink:href="#linearGradient851"
       id="linearGradient850"
       x1="18.709894"
       y1="-82.391396"
       x2="83.055542"
       y2="-16.442411"
       gradientUnits="userSpaceOnUse" /><linearGradient
       inkscape:collect="always"
       xlink:href="#linearGradient870"
       id="linearGradient858"
       gradientUnits="userSpaceOnUse"
       x1="-0.45677894"
       y1="-98.801781"
       x2="76.550003"
       y2="-23.450001" /><linearGradient
       inkscape:collect="always"
       xlink:href="#linearGradient851"
       id="linearGradient878"
       gradientUnits="userSpaceOnUse"
       x1="83.990524"
       y1="33.105457"
       x2="-30.895609"
       y2="-80.030136" /><linearGradient
       inkscape:collect="always"
       xlink:href="#linearGradient851"
       id="linearGradient842"
       gradientUnits="userSpaceOnUse"
       x1="-47"
       y1="3"
       x2="-86.827812"
       y2="-35.962341" /><linearGradient
       inkscape:collect="always"
       xlink:href="#linearGradient870"
       id="linearGradient849"
       x1="-85.500999"
       y1="3.0207112"
       x2="86.901001"
       y2="3.0207112"
       gradientUnits="userSpaceOnUse" /><linearGradient
       inkscape:collect="always"
       xlink:href="#linearGradient851"
       id="linearGradient884"
       x1="550.49213"
       y1="164.11586"
       x2="545.98645"
       y2="-5.2701607"
       gradientUnits="userSpaceOnUse" /><linearGradient
       inkscape:collect="always"
       xlink:href="#linearGradient851"
       id="linearGradient886"
       gradientUnits="userSpaceOnUse"
       x1="-85.500999"
       y1="3.0207112"
       x2="86.901001"
       y2="3.0207112" /><linearGradient
       inkscape:collect="always"
       xlink:href="#linearGradient870"
       id="linearGradient888"
       gradientUnits="userSpaceOnUse"
       x1="-85.500999"
       y1="3.0207112"
       x2="86.901001"
       y2="3.0207112" /><linearGradient
       inkscape:collect="always"
       xlink:href="#linearGradient851"
       id="linearGradient890"
       gradientUnits="userSpaceOnUse"
       x1="550.49213"
       y1="164.11586"
       x2="545.98645"
       y2="-5.2701607" /><linearGradient
       inkscape:collect="always"
       xlink:href="#linearGradient851"
       id="linearGradient892"
       gradientUnits="userSpaceOnUse"
       x1="550.49213"
       y1="164.11586"
       x2="545.98645"
       y2="-5.2701607" /><linearGradient
       inkscape:collect="always"
       xlink:href="#linearGradient851"
       id="linearGradient894"
       gradientUnits="userSpaceOnUse"
       x1="550.49213"
       y1="164.11586"
       x2="545.98645"
       y2="-5.2701607" /><linearGradient
       inkscape:collect="always"
       xlink:href="#linearGradient851"
       id="linearGradient875"
       gradientUnits="userSpaceOnUse"
       x1="550.49213"
       y1="164.11586"
       x2="545.98645"
       y2="-5.2701607"
       gradientTransform="translate(11.18587,20.773762)" /></defs><sodipodi:namedview
     pagecolor="#ffffff"
     bordercolor="#666666"
     borderopacity="1"
     objecttolerance="10"
     gridtolerance="10"
     guidetolerance="10"
     inkscape:pageopacity="0"
     inkscape:pageshadow="2"
     inkscape:window-width="1366"
     inkscape:window-height="713"
     id="namedview4"
     showgrid="false"
     inkscape:zoom="0.62578953"
     inkscape:cx="394.60329"
     inkscape:cy="47.757785"
     inkscape:window-x="0"
     inkscape:window-y="27"
     inkscape:window-maximized="1"
     inkscape:current-layer="layer1"
     fit-margin-top="1"
     fit-margin-left="1"
     fit-margin-right="1"
     fit-margin-bottom="1" /><g
     id="g10"
     inkscape:groupmode="layer"
     inkscape:label="backup"
     transform="matrix(1.3333333,0,0,-1.3333333,-250.73199,382.72322)"
     style="display:none"
     sodipodi:insensitive="true"><g
       id="g12"
       transform="translate(274.3,196.5)"><path
         d="M 0,0 57.8,57.8 M -23.7,-73.65 76.8,26.85 M -47,3 27.35,77.4 m -82,-132 L -27,-27 m -47.2,2.8 0.2,0.2 M 26.6,-73.4 26,-73 M -21.4,79.65 v -1 m -54,-54.05 29.05,29.05 M 63,-37 76.55,-23.45"
         style="fill:#800080;fill-opacity:1;stroke:url(#linearGradient886);stroke-width:20;stroke-linecap:round;stroke-linejoin:miter;stroke-miterlimit:3;stroke-dasharray:none;stroke-opacity:1"
         id="path14"
         inkscape:connector-curvature="0" /></g></g><g
     transform="matrix(1.3333333,0,0,-1.3333333,-250.73199,382.72322)"
     inkscape:label="logo32 copy"
     inkscape:groupmode="layer"
     id="g822"
     style="display:inline;opacity:1"
     sodipodi:insensitive="true"><g
       transform="translate(274.3,196.5)"
       id="g820"
       style="fill:url(#linearGradient849);fill-opacity:1"><path
         inkscape:connector-curvature="0"
         id="path818"
         style="fill:url(#linearGradient888);fill-opacity:1;stroke:url(#linearGradient853);stroke-width:20;stroke-linecap:round;stroke-linejoin:miter;stroke-miterlimit:3;stroke-dasharray:none;stroke-opacity:1"
         d="M 0,0 57.8,57.8 M -23.7,-73.65 76.8,26.85 M -47,3 27.35,77.4 m -82,-132 L -27,-27 m -47.2,2.8 0.2,0.2 M 26.6,-73.4 26,-73 M -21.4,79.65 v -1 m -54,-54.05 29.05,29.05 M 63,-37 76.55,-23.45" /></g></g><g
     inkscape:groupmode="layer"
     id="layer1"
     inkscape:label="name"><path
       style="font-style:normal;font-weight:normal;font-size:40px;line-height:1.25;font-family:sans-serif;letter-spacing:0px;word-spacing:0px;display:inline;opacity:1;fill:url(#linearGradient875);fill-opacity:1;stroke:none"
       d="m 677.41048,47.152668 c 0,45.978516 0,91.957032 0,137.935542 8.30924,0 16.61849,0 24.92773,0 0,-46.64518 0,-93.290359 0,-139.935542 -8.30924,0 -16.61849,0 -24.92773,0 v 1 z m -395.78125,4.416016 c 0,44.50651 0,89.013016 0,133.519526 21.16453,-0.48289 42.41427,0.92252 63.53516,-0.59961 13.81907,-1.20135 27.92139,-9.49452 31.6875,-23.55664 4.26767,-14.94156 2.96564,-34.44351 -11.05982,-43.87457 -1.16709,-1.17556 -5.16556,-1.8678 -1.81323,-3.16449 12.47419,-9.23089 13.36985,-26.769686 10.2207,-40.701169 -2.81082,-13.350936 -15.92312,-21.414459 -28.75976,-22.796875 -19.87217,-2.021091 -39.94806,-0.216231 -59.89063,-0.826172 -1.832,0.426426 -4.94455,-1.322772 -3.91992,2 z m 50.73828,20.43164 c 8.52143,-0.823248 17.90575,4.752052 17.54102,14.167969 1.24421,8.780225 -3.55305,19.296807 -13.58985,19.304687 -9.78008,0.40786 -19.58746,0.0295 -29.37695,0.16016 0,-11.21094 0,-22.421878 0,-33.632816 8.47526,0 16.95052,10e-7 25.42578,0 z m 101.75,10.996094 c -12.91936,0.230849 -25.73395,2.364917 -38.26953,5.404297 0.31813,6.158282 0.63842,12.316455 0.95898,18.474605 14.45169,-0.49724 28.98227,-3.10274 43.34961,-1.51562 7.39576,1.57716 6.83729,10.55653 6.65625,16.37304 -16.11148,2.39701 -35.13952,-0.31815 -48.61133,10.7793 -9.4248,9.2318 -9.03115,24.24532 -5.95117,36.13477 2.92931,11.50641 14.57294,18.527 26.01758,18.48437 11.5494,0.76291 23.22183,-2.58024 33.65039,-6.51953 7.94356,5.54073 17.98815,6.71575 27.42969,6.61328 0.23655,-6.5521 0.47299,-13.1042 0.71094,-19.65625 -4.88716,0.45968 -9.43762,-3.10687 -8.50977,-8.20117 -0.61249,-17.48465 1.19103,-35.12371 -0.80469,-52.52734 -1.34035,-11.525074 -10.67103,-21.146637 -22.17968,-22.746096 -4.74626,-0.976642 -9.61356,-1.195808 -14.44727,-1.097656 z m 96.45703,-0.0078 c -13.98329,-0.252866 -29.63259,5.537326 -35.32422,19.328124 -6.89505,16.68698 -6.32169,35.5304 -3.7986,53.09536 1.84006,12.10041 8.32171,24.77147 20.72048,28.73862 16.35642,5.87048 34.02636,1.92343 50.59961,-0.73242 -0.23627,-6.83787 -0.47322,-13.67572 -0.70703,-20.51367 -13.20784,-0.2128 -27.90017,5.02479 -40.15625,-1.84961 -7.628,-6.60861 -6.51678,-18.20127 -6.99479,-27.36519 0.59199,-8.33536 -0.28596,-19.4291 7.57096,-24.99809 11.92084,-5.86675 25.65465,-1.97394 38.25883,-1.46614 2.83618,-2.75862 0.79938,-11.154997 1.84996,-15.979617 2.19343,-6.076603 -5.07147,-4.829514 -9.02445,-6.05459 -7.58499,-1.349341 -15.27668,-2.319607 -22.9945,-2.202777 z m 85.79297,0.0078 c -12.91936,0.230849 -25.73395,2.364917 -38.26953,5.404297 0.31813,6.158282 0.63842,12.316455 0.95898,18.474605 14.45169,-0.49724 28.98227,-3.10274 43.34961,-1.51562 7.39576,1.57716 6.83729,10.55653 6.65625,16.37304 -16.11148,2.39701 -35.13952,-0.31815 -48.61133,10.7793 -9.4248,9.2318 -9.03115,24.24532 -5.95117,36.13477 2.92931,11.50641 14.57294,18.527 26.01758,18.48437 11.5494,0.76291 23.22183,-2.58024 33.65039,-6.51953 7.94356,5.54073 17.98815,6.71575 27.42969,6.61328 0.23655,-6.5521 0.47299,-13.1042 0.71094,-19.65625 -4.88716,0.45968 -9.43762,-3.10687 -8.50977,-8.20117 -0.61249,-17.48465 1.19103,-35.12371 -0.80469,-52.52734 -1.34035,-11.525074 -10.67103,-21.146637 -22.17968,-22.746096 -4.74626,-0.976642 -9.61356,-1.195808 -14.44727,-1.097656 z m 146.25,0 c -12.91936,0.230849 -25.73395,2.364917 -38.26953,5.404297 0.31813,6.158282 0.63842,12.316455 0.95898,18.474605 14.45169,-0.49724 28.98227,-3.10274 43.34961,-1.51562 7.39576,1.57716 6.83729,10.55653 6.65625,16.37304 -16.11148,2.39701 -35.13952,-0.31815 -48.61133,10.7793 -9.4248,9.2318 -9.03115,24.24532 -5.95117,36.13477 2.92931,11.50641 14.57294,18.527 26.01758,18.48437 11.5494,0.76291 23.22183,-2.58024 33.65039,-6.51953 7.94356,5.54073 17.98815,6.71575 27.42969,6.61328 0.23655,-6.5521 0.47299,-13.1042 0.71094,-19.65625 -4.88716,0.45968 -9.43762,-3.10687 -8.50977,-8.20117 -0.61249,-17.48465 1.19103,-35.12371 -0.80469,-52.52734 -1.34035,-11.525074 -10.67103,-21.146637 -22.17968,-22.746096 -4.74626,-0.976642 -9.61356,-1.195808 -14.44727,-1.097656 z m 98.65625,-0.0078 c -14.54754,-0.216334 -30.87981,5.464248 -37.19531,19.650394 -7.61029,16.57762 -7.39798,35.82977 -4.01172,53.43359 2.54192,12.77679 10.95672,25.16831 24.08984,28.61719 14.8315,3.91638 31.86516,3.98249 45.49219,-3.79883 14.59375,-9.40393 17.61945,-28.39915 17.875,-44.4375 0.17694,-16.71387 -2.56523,-36.496373 -17.45312,-46.712891 -8.43919,-5.553754 -18.9083,-6.886989 -28.79688,-6.751953 z m 2.84766,21.677734 c 7.62406,-0.45798 15.31468,4.72989 16.48242,12.6875 2.55126,13.28881 3.13916,27.84539 -1.875,40.63672 -4.44021,8.43798 -15.45014,8.35689 -23.375,6.69726 -10.24203,-2.23949 -11.57329,-14.35794 -12.12396,-22.98431 -0.0444,-10.79355 -1.45429,-23.40808 5.51654,-32.47467 4.073,-4.10371 9.94896,-4.68884 15.375,-4.5625 z M 333.5179,127.68001 c 8.49711,-0.45616 19.07337,4.14755 19.33399,13.82617 1.264,8.23747 -1.33367,19.19268 -11.20508,20.36719 -11.4503,1.78877 -23.15915,0.29371 -34.70508,0.7832 0,-11.65885 0,-23.31771 0,-34.97656 8.85872,0 17.71745,0 26.57617,0 z m 113.29492,34.76758 c -8.55992,2.39803 -18.17722,5.19663 -27.0332,2.60937 -6.31338,-4.28856 -6.04437,-15.76686 -0.17187,-20.38281 8.31386,-4.14095 18.22504,-2.42023 27.20507,-4.125 0,7.29948 0,14.59896 0,21.89844 z m 182.25,0 c -8.55992,2.39803 -18.17722,5.19663 -27.0332,2.60937 -6.31338,-4.28856 -6.04437,-15.76686 -0.17187,-20.38281 8.31386,-4.14095 18.22504,-2.42023 27.20507,-4.125 0,7.29948 0,14.59896 0,21.89844 z m 146.25,0 c -8.55992,2.39803 -18.17722,5.19663 -27.0332,2.60937 -6.31338,-4.28856 -6.04437,-15.76686 -0.17187,-20.38281 8.31386,-4.14095 18.22504,-2.42023 27.20507,-4.125 0,7.29948 0,14.59896 0,21.89844 z"
       id="flowRoot870"
       inkscape:connector-curvature="0" /></g><g
     inkscape:label="name copy"
     id="g866"
     inkscape:groupmode="layer"
     style="display:none"><flowRoot
       transform="translate(11.18587,20.773762)"
       style="font-style:normal;font-weight:normal;font-size:40px;line-height:1.25;font-family:sans-serif;letter-spacing:0px;word-spacing:0px;display:inline;opacity:1;fill:url(#linearGradient884);fill-opacity:1;stroke:none"
       id="flowRoot864"
       xml:space="preserve"><flowRegion
         style="fill:url(#linearGradient892);fill-opacity:1"
         id="flowRegion860"><rect
           style="fill:url(#linearGradient890);fill-opacity:1"
           y="-4.7079864"
           x="257.27499"
           height="246.08913"
           width="741.46332"
           id="rect858" /></flowRegion><flowPara
         style="font-style:normal;font-variant:normal;font-weight:normal;font-stretch:normal;font-size:192px;font-family:'Titillium Web';-inkscape-font-specification:'Titillium Web';fill:url(#linearGradient894);fill-opacity:1"
         id="flowPara862">Bacalao</flowPara></flowRoot></g><g
     style="display:inline"
     id="g840"
     inkscape:groupmode="layer"
     inkscape:label="dot low-left"
     transform="matrix(1.3333333,0,0,-1.3333333,-250.73199,382.72322)"
     sodipodi:insensitive="true"><g
       id="g838"
       transform="translate(274.3,196.5)"><path
         d="M -74.2,-24.2 -74,-24"
         style="fill:#800080;fill-opacity:1;stroke:url(#linearGradient842);stroke-width:20;stroke-linecap:round;stroke-linejoin:miter;stroke-miterlimit:3;stroke-dasharray:none;stroke-opacity:1"
         id="path836"
         inkscape:connector-curvature="0"
         sodipodi:nodetypes="cc" /></g></g><g
     style="display:inline"
     id="g876"
     inkscape:groupmode="layer"
     inkscape:label="low-right-3"
     transform="matrix(1.3333333,0,0,-1.3333333,-250.73199,382.72322)"
     sodipodi:insensitive="true"><g
       id="g874"
       transform="translate(274.3,196.5)"><path
         d="M -23.7,-73.65 76.8,26.85"
         style="fill:#800080;fill-opacity:1;stroke:url(#linearGradient878);stroke-width:20;stroke-linecap:round;stroke-linejoin:miter;stroke-miterlimit:3;stroke-dasharray:none;stroke-opacity:1"
         id="path872"
         inkscape:connector-curvature="0"
         sodipodi:nodetypes="cc" /></g></g><g
     style="display:inline"
     id="g856"
     inkscape:groupmode="layer"
     inkscape:label="low-right-2"
     transform="matrix(1.3333333,0,0,-1.3333333,-250.73199,382.72322)"
     sodipodi:insensitive="true"><g
       id="g854"
       transform="translate(274.3,196.5)"><path
         d="M 26.6,-73.4 26,-73"
         style="fill:#800080;fill-opacity:1;stroke:url(#linearGradient858);stroke-width:20;stroke-linecap:round;stroke-linejoin:miter;stroke-miterlimit:3;stroke-dasharray:none;stroke-opacity:1"
         id="path852"
         inkscape:connector-curvature="0"
         sodipodi:nodetypes="cc" /></g></g><g
     style="display:inline"
     id="g828"
     inkscape:groupmode="layer"
     inkscape:label="low-right-1"
     transform="matrix(1.3333333,0,0,-1.3333333,-250.73199,382.72322)"
     sodipodi:insensitive="true"><g
       id="g826"
       transform="translate(274.3,196.5)"><path
         d="m 63,-37 13.55,13.55"
         style="fill:#800080;fill-opacity:1;stroke:url(#linearGradient850);stroke-width:20;stroke-linecap:round;stroke-linejoin:miter;stroke-miterlimit:3;stroke-dasharray:none;stroke-opacity:1"
         id="path824"
         inkscape:connector-curvature="0"
         sodipodi:nodetypes="cc" /></g></g></svg>