<?xml version="1.0" encoding="UTF-8" standalone="no"?>
<svg
   xmlns:dc="http://purl.org/dc/elements/1.1/"
   xmlns:cc="http://creativecommons.org/ns#"
   xmlns:rdf="http://www.w3.org/1999/02/22-rdf-syntax-ns#"
   xmlns:svg="http://www.w3.org/2000/svg"
   xmlns="http://www.w3.org/2000/svg"
   xmlns:sodipodi="http://sodipodi.sourceforge.net/DTD/sodipodi-0.dtd"
   xmlns:inkscape="http://www.inkscape.org/namespaces/inkscape"
   version="1.1"
   x="0px"
   y="0px"
   viewBox="0 0 54.299999 52.5"
   xml:space="preserve"
   id="svg24"
   sodipodi:docname="noun_pallets_1328145.svg"
   width="54.299999"
   height="52.5"
   inkscape:version="0.92.3 (d244b95, 2018-08-02)"><metadata
     id="metadata30"><rdf:RDF><cc:Work
         rdf:about=""><dc:format>image/svg+xml</dc:format><dc:type
           rdf:resource="http://purl.org/dc/dcmitype/StillImage" /><dc:title></dc:title></cc:Work></rdf:RDF></metadata><defs
     id="defs28" /><sodipodi:namedview
     pagecolor="#ffffff"
     bordercolor="#666666"
     borderopacity="1"
     objecttolerance="10"
     gridtolerance="10"
     guidetolerance="10"
     inkscape:pageopacity="0"
     inkscape:pageshadow="2"
     inkscape:window-width="1366"
     inkscape:window-height="713"
     id="namedview26"
     showgrid="false"
     fit-margin-top="1"
     fit-margin-left="1"
     fit-margin-right="1"
     fit-margin-bottom="1"
     inkscape:zoom="2.8606061"
     inkscape:cx="27.2"
     inkscape:cy="10.25"
     inkscape:window-x="0"
     inkscape:window-y="27"
     inkscape:window-maximized="1"
     inkscape:current-layer="g18" /><g
     id="g18"
     transform="translate(-5.8,1)"><g
       id="g8"><path
         d="m 7.8,50.5 h 22.6 c 0.6,0 1,-0.4 1,-1 0,-33.4 0,-17.5 0,-22.4 0,-0.6 -0.4,-1 -1,-1 -2.4,0 -20.2,0 -22.6,0 -0.6,0 -1,0.4 -1,1 v 22.4 c 0,0.5 0.5,1 1,1 z m 1,-2 V 33.8 h 5.8 v 2.5 c 0,0.4 0.2,0.7 0.6,0.9 0.4,0.2 0.8,0.1 1.1,-0.2 L 19.2,34.5 22,37 c 0.3,0.3 0.7,0.3 1.1,0.2 0.4,-0.2 0.6,-0.5 0.6,-0.9 v -2.5 h 5.8 V 48.5 Z M 29.5,31.8 h -5.8 v -3.7 h 5.8 z m -7.8,-3.7 v 6 l -1.9,-1.6 c -0.2,-0.2 -0.4,-0.2 -0.7,-0.2 -0.2,0 -0.5,0.1 -0.7,0.2 L 16.6,34 v -6 h 5.1 z m -7.1,0 v 3.7 H 8.8 v -3.7 z"
         id="path6"
         inkscape:connector-curvature="0" /></g><g
       id="g12"><path
         d="m 35.5,26.1 c -0.6,0 -1,0.4 -1,1 v 22.4 c 0,0.6 0.4,1 1,1 h 22.6 c 0.6,0 1,-0.4 1,-1 0,-33.4 0,-17.5 0,-22.4 0,-0.6 -0.4,-1 -1,-1 -2.4,0 -20.1,0 -22.6,0 z m 6.8,2 v 3.7 H 36.5 V 28.1 Z M 36.5,48.5 V 33.8 h 5.8 v 2.5 c 0,0.4 0.2,0.7 0.6,0.9 0.4,0.2 0.8,0.1 1.1,-0.2 l 2.9,-2.5 2.9,2.5 c 0.3,0.3 0.7,0.3 1.1,0.2 0.4,-0.2 0.6,-0.5 0.6,-0.9 v -2.5 h 5.8 V 48.5 Z M 57.2,31.8 h -5.8 v -3.7 h 5.8 z m -7.8,-3.7 v 6 l -1.9,-1.6 c -0.2,-0.2 -0.4,-0.2 -0.7,-0.2 -0.3,0 -0.5,0.1 -0.7,0.2 L 44.3,34 v -6 h 5.1 z"
         id="path10"
         inkscape:connector-curvature="0" /></g><g
       id="g16"><path
         d="m 21.7,24.3 h 22.5 c 0.6,0 1,-0.4 1,-1 0,-33.2 0,-17.4 0,-22.3 0,-0.6 -0.4,-1 -1,-1 -2.4,0 -20.1,0 -22.5,0 -0.6,0 -1,0.4 -1,1 v 22.3 c 0,0.5 0.5,1 1,1 z m 1,-2 V 7.7 h 5.7 v 2.4 c 0,0.4 0.2,0.7 0.6,0.9 0.4,0.2 0.8,0.1 1.1,-0.2 l 2.9,-2.4 2.8,2.5 c 0.3,0.3 0.7,0.3 1.1,0.2 0.4,-0.2 0.6,-0.5 0.6,-0.9 V 7.7 h 5.7 V 22.3 Z M 43.2,5.7 H 37.5 V 2 h 5.7 z M 35.5,2 V 7.9 L 33.7,6.3 C 33.5,6.1 33.3,6.1 33,6.1 32.8,6.1 32.5,6.2 32.3,6.3 L 30.5,7.9 V 2 Z m -7,0 V 5.7 H 22.8 V 2 Z"
         id="path14"
         inkscape:connector-curvature="0" /></g></g></svg>