<?xml version="1.0" encoding="UTF-8" standalone="no"?>
<svg
   xmlns:dc="http://purl.org/dc/elements/1.1/"
   xmlns:cc="http://creativecommons.org/ns#"
   xmlns:rdf="http://www.w3.org/1999/02/22-rdf-syntax-ns#"
   xmlns:svg="http://www.w3.org/2000/svg"
   xmlns="http://www.w3.org/2000/svg"
   xmlns:sodipodi="http://sodipodi.sourceforge.net/DTD/sodipodi-0.dtd"
   xmlns:inkscape="http://www.inkscape.org/namespaces/inkscape"
   version="1.1"
   x="0px"
   y="0px"
   viewBox="0 0 21.417 21.416"
   xml:space="preserve"
   id="svg12"
   sodipodi:docname="noun_Calendar_1585330.svg"
   width="21.417"
   height="21.416"
   inkscape:version="0.92.3 (d244b95, 2018-08-02)"><metadata
     id="metadata18"><rdf:RDF><cc:Work
         rdf:about=""><dc:format>image/svg+xml</dc:format><dc:type
           rdf:resource="http://purl.org/dc/dcmitype/StillImage" /><dc:title></dc:title></cc:Work></rdf:RDF></metadata><defs
     id="defs16" /><sodipodi:namedview
     pagecolor="#ffffff"
     bordercolor="#666666"
     borderopacity="1"
     objecttolerance="10"
     gridtolerance="10"
     guidetolerance="10"
     inkscape:pageopacity="0"
     inkscape:pageshadow="2"
     inkscape:window-width="1280"
     inkscape:window-height="996"
     id="namedview14"
     showgrid="false"
     fit-margin-top="2"
     fit-margin-left="2"
     fit-margin-right="2"
     fit-margin-bottom="2"
     inkscape:zoom="7.8666667"
     inkscape:cx="10.708"
     inkscape:cy="7.708"
     inkscape:window-x="1366"
     inkscape:window-y="0"
     inkscape:window-maximized="1"
     inkscape:current-layer="svg12" /><g
     id="g6"
     transform="translate(-1.292,-1.292)"><path
       d="m 19.153,4.847 h -3.11 V 3.603 c 0,-0.172 -0.139,-0.311 -0.311,-0.311 -0.172,0 -0.311,0.139 -0.311,0.311 v 2.799 c 0,0.172 0.139,0.311 0.311,0.311 0.172,0 0.311,-0.139 0.311,-0.311 V 5.469 h 3.11 c 0.515,0 0.933,0.419 0.933,0.933 V 9.201 H 3.914 V 6.402 c 0,-0.515 0.419,-0.933 0.933,-0.933 H 7.335 V 4.847 H 4.847 c -0.857,0 -1.555,0.698 -1.555,1.555 v 12.751 c 0,0.857 0.698,1.555 1.555,1.555 h 14.307 c 0.857,0 1.555,-0.698 1.555,-1.555 V 6.402 C 20.708,5.544 20.011,4.847 19.153,4.847 Z m 0.933,14.306 c 0,0.515 -0.419,0.933 -0.933,0.933 H 4.847 c -0.515,0 -0.933,-0.419 -0.933,-0.933 v -9.33 h 16.173 v 9.33 z"
       id="path2"
       inkscape:connector-curvature="0" /><path
       d="m 8.268,6.713 c 0.172,0 0.311,-0.139 0.311,-0.311 V 5.469 h 6.22 V 4.847 H 8.579 V 3.603 C 8.579,3.431 8.44,3.292 8.268,3.292 8.096,3.292 7.957,3.431 7.957,3.603 v 2.799 c 0,0.172 0.139,0.311 0.311,0.311 z"
       id="path4"
       inkscape:connector-curvature="0" /></g></svg>