<?xml version="1.0" encoding="UTF-8" standalone="no"?>
<!-- Created with Inkscape (http://www.inkscape.org/) -->

<svg
   xmlns:dc="http://purl.org/dc/elements/1.1/"
   xmlns:cc="http://creativecommons.org/ns#"
   xmlns:rdf="http://www.w3.org/1999/02/22-rdf-syntax-ns#"
   xmlns:svg="http://www.w3.org/2000/svg"
   xmlns="http://www.w3.org/2000/svg"
   xmlns:sodipodi="http://sodipodi.sourceforge.net/DTD/sodipodi-0.dtd"
   xmlns:inkscape="http://www.inkscape.org/namespaces/inkscape"
   width="19.457113mm"
   height="19.443733mm"
   viewBox="0 0 19.457113 19.443733"
   version="1.1"
   id="svg8"
   inkscape:version="0.92.3 (d244b95, 2018-08-02)"
   sodipodi:docname="clock.svg">
  <defs
     id="defs2" />
  <sodipodi:namedview
     id="base"
     pagecolor="#ffffff"
     bordercolor="#666666"
     borderopacity="1.0"
     inkscape:pageopacity="0.0"
     inkscape:pageshadow="2"
     inkscape:zoom="3.959798"
     inkscape:cx="-29.363147"
     inkscape:cy="38.362185"
     inkscape:document-units="mm"
     inkscape:current-layer="g940"
     showgrid="false"
     fit-margin-top="1"
     fit-margin-left="1"
     fit-margin-right="1"
     fit-margin-bottom="1"
     inkscape:window-width="1366"
     inkscape:window-height="713"
     inkscape:window-x="0"
     inkscape:window-y="27"
     inkscape:window-maximized="1" />
  <metadata
     id="metadata5">
    <rdf:RDF>
      <cc:Work
         rdf:about="">
        <dc:format>image/svg+xml</dc:format>
        <dc:type
           rdf:resource="http://purl.org/dc/dcmitype/StillImage" />
        <dc:title></dc:title>
      </cc:Work>
    </rdf:RDF>
  </metadata>
  <g
     inkscape:label="Layer 1"
     inkscape:groupmode="layer"
     id="layer1"
     transform="translate(-7.0913846,-43.518601)">
    <g
       id="g940"
       transform="matrix(0.26458333,0,0,0.26458333,8.079383,44.533058)">
      <g
         id="g887">
        <g
           id="g817">
          <path
             id="path815"
             d="M 33,9.8 C 20.2,9.8 9.8,20.2 9.8,33 9.8,45.8 20.2,56.2 33,56.2 45.8,56.2 56.2,45.8 56.2,33 56.2,20.2 45.8,9.8 33,9.8 Z m 0,44.4 C 21.3,54.2 11.8,44.7 11.8,33 11.8,21.3 21.3,11.8 33,11.8 c 11.7,0 21.2,9.5 21.2,21.2 0,11.7 -9.5,21.2 -21.2,21.2 z"
             inkscape:connector-curvature="0" />
        </g>
        <g
           id="g821">
          <path
             id="path819"
             d="m 34,29.2 v -8.4 c 0,-0.6 -0.4,-1 -1,-1 -0.6,0 -1,0.4 -1,1 v 8.4 c -1.6,0.5 -2.9,2 -2.9,3.8 0,0.7 0.2,1.3 0.5,1.9 L 24,40.4 c -0.4,0.4 -0.4,1 0,1.4 0.4,0.4 1,0.4 1.4,0 L 31,36.4 c 0.6,0.4 1.3,0.6 2,0.6 2.1,0 3.9,-1.8 3.9,-3.9 0,-1.9 -1.3,-3.4 -2.9,-3.9 z m -1,5.7 c -1,0 -1.9,-0.9 -1.9,-1.9 0,-1.1 0.8,-1.9 1.9,-1.9 1,0 1.9,0.9 1.9,1.9 0,1.1 -0.9,1.9 -1.9,1.9 z"
             inkscape:connector-curvature="0" />
        </g>
        <g
           id="g825">
          <path
             id="path823"
             d="m 33,18.1 c 0.6,0 1,-0.4 1,-1 v -2.6 c 0,-0.6 -0.4,-1 -1,-1 -0.6,0 -1,0.4 -1,1 v 2.6 c 0,0.5 0.4,1 1,1 z"
             inkscape:connector-curvature="0" />
        </g>
        <g
           id="g829">
          <path
             id="path827"
             d="m 33,47.9 c -0.6,0 -1,0.4 -1,1 v 2.6 c 0,0.6 0.4,1 1,1 0.6,0 1,-0.4 1,-1 v -2.6 c 0,-0.5 -0.4,-1 -1,-1 z"
             inkscape:connector-curvature="0" />
        </g>
        <g
           id="g833">
          <path
             id="path831"
             d="m 47.9,33 c 0,0.6 0.4,1 1,1 h 2.6 c 0.6,0 1,-0.4 1,-1 0,-0.6 -0.4,-1 -1,-1 h -2.6 c -0.5,0 -1,0.4 -1,1 z"
             inkscape:connector-curvature="0" />
        </g>
        <g
           id="g837">
          <path
             id="path835"
             d="m 18.1,33 c 0,-0.6 -0.4,-1 -1,-1 h -2.6 c -0.6,0 -1,0.4 -1,1 0,0.6 0.4,1 1,1 h 2.6 c 0.5,0 1,-0.4 1,-1 z"
             inkscape:connector-curvature="0" />
        </g>
        <g
           id="g841">
          <path
             id="path839"
             d="m 40.6,20.2 c 0.5,0.3 1.1,0.1 1.4,-0.4 l 1.3,-2.2 c 0.3,-0.5 0.1,-1.1 -0.4,-1.4 -0.5,-0.3 -1.1,-0.1 -1.4,0.4 l -1.3,2.2 c -0.3,0.5 -0.1,1.1 0.4,1.4 z"
             inkscape:connector-curvature="0" />
        </g>
        <g
           id="g845">
          <path
             id="path843"
             d="M 25.4,45.8 C 24.9,45.5 24.3,45.7 24,46.2 l -1.3,2.2 c -0.3,0.5 -0.1,1.1 0.4,1.4 0.5,0.3 1.1,0.1 1.4,-0.4 l 1.3,-2.2 c 0.3,-0.5 0.1,-1.1 -0.4,-1.4 z"
             inkscape:connector-curvature="0" />
        </g>
        <g
           id="g849">
          <path
             id="path847"
             d="m 49.4,41.5 -2.2,-1.3 c -0.5,-0.3 -1.1,-0.1 -1.4,0.4 -0.3,0.5 -0.1,1.1 0.4,1.4 l 2.2,1.3 c 0.5,0.3 1.1,0.1 1.4,-0.4 0.3,-0.5 0.1,-1.1 -0.4,-1.4 z"
             inkscape:connector-curvature="0" />
        </g>
        <g
           id="g853">
          <path
             id="path851"
             d="m 16.6,24.5 2.2,1.3 c 0.5,0.3 1.1,0.1 1.4,-0.4 0.3,-0.5 0.1,-1.1 -0.4,-1.4 l -2.2,-1.3 c -0.5,-0.3 -1.1,-0.1 -1.4,0.4 -0.3,0.5 -0.1,1.1 0.4,1.4 z"
             inkscape:connector-curvature="0" />
        </g>
        <g
           id="g857">
          <path
             id="path855"
             d="m 45.7,25.2 c 0.3,0.5 0.9,0.6 1.4,0.3 l 2.2,-1.3 c 0.5,-0.3 0.6,-0.9 0.3,-1.4 -0.3,-0.5 -0.9,-0.6 -1.4,-0.3 L 46,23.8 c -0.4,0.4 -0.6,1 -0.3,1.4 z"
             inkscape:connector-curvature="0" />
        </g>
        <g
           id="g861">
          <path
             id="path859"
             d="m 18.9,40.4 -2.2,1.3 c -0.5,0.3 -0.6,0.9 -0.3,1.4 0.3,0.5 0.9,0.6 1.4,0.3 L 20,42.1 c 0.5,-0.3 0.6,-0.9 0.3,-1.4 -0.3,-0.4 -0.9,-0.6 -1.4,-0.3 z"
             inkscape:connector-curvature="0" />
        </g>
        <g
           id="g865">
          <path
             id="path863"
             d="m 42.1,46.1 c -0.3,-0.5 -0.9,-0.6 -1.4,-0.3 -0.5,0.3 -0.6,0.9 -0.3,1.4 l 1.3,2.2 c 0.3,0.5 0.9,0.6 1.4,0.3 0.5,-0.3 0.6,-0.9 0.3,-1.4 z"
             inkscape:connector-curvature="0" />
        </g>
        <g
           id="g869">
          <path
             id="path867"
             d="m 25.2,20.3 c 0.5,-0.3 0.6,-0.9 0.3,-1.4 l -1.3,-2.2 c -0.3,-0.5 -0.9,-0.6 -1.4,-0.3 -0.5,0.3 -0.6,0.9 -0.3,1.4 l 1.3,2.2 c 0.4,0.4 1,0.6 1.4,0.3 z"
             inkscape:connector-curvature="0" />
        </g>
        <g
           id="g873">
          <path
             id="path871"
             d="m 5.1,33.8 3.6,-3.6 c 0.4,-0.4 0.4,-1 0,-1.4 -0.4,-0.4 -1,-0.4 -1.4,0 L 5.5,30.6 C 6.6,18 15.9,7.8 28.4,5.7 28.9,5.6 29.3,5.1 29.2,4.5 29.1,4 28.6,3.6 28,3.7 14.6,6 4.6,17.1 3.5,30.5 l -1.7,-2 C 1.4,28.1 0.8,28 0.4,28.4 0,28.8 -0.1,29.4 0.3,29.8 l 3.4,3.9 c 0.3,0.4 1,0.5 1.4,0.1 z"
             inkscape:connector-curvature="0" />
        </g>
        <g
           id="g877">
          <path
             id="path875"
             d="m 33.7,61.1 -3.6,-3.6 c -0.4,-0.4 -1,-0.4 -1.4,0 -0.4,0.4 -0.4,1 0,1.4 l 1.8,1.8 C 18,59.5 7.6,49.8 5.7,37.2 5.6,36.7 5.1,36.3 4.6,36.4 4,36.5 3.6,37 3.7,37.5 5.7,51 16.8,61.3 30.1,62.6 L 28,64.1 c -0.4,0.3 -0.5,1 -0.2,1.4 0.3,0.4 1,0.5 1.4,0.2 l 4.3,-3.2 c 0.2,-0.2 0.4,-0.5 0.4,-0.8 0.1,-0.1 0,-0.4 -0.2,-0.6 z"
             inkscape:connector-curvature="0" />
        </g>
        <g
           id="g881">
          <path
             id="path879"
             d="m 65.8,36.3 -3.4,-3.9 c -0.2,-0.2 -0.4,-0.3 -0.7,-0.3 -0.3,0 -0.5,0.1 -0.7,0.3 L 57.4,36 c -0.4,0.4 -0.4,1 0,1.4 0.4,0.4 1,0.4 1.4,0 l 1.8,-1.8 c -1.1,12.7 -11,23.3 -23.7,25 -0.5,0.1 -0.9,0.6 -0.9,1.1 0.1,0.6 0.6,0.9 1.1,0.9 13.8,-1.9 24.3,-13.3 25.5,-27 l 1.8,2 c 0.4,0.4 1,0.5 1.4,0.1 0.3,-0.4 0.3,-1 0,-1.4 z"
             inkscape:connector-curvature="0" />
        </g>
        <g
           id="g885">
          <path
             id="path883"
             d="m 32.3,5 3.6,3.6 c 0.4,0.4 1,0.4 1.4,0 0.4,-0.4 0.4,-1 0,-1.4 L 35.5,5.4 c 12.6,1.2 23,11 24.8,23.7 0.1,0.5 0.6,0.9 1.1,0.8 0.5,-0.1 0.9,-0.6 0.8,-1.1 C 60.4,15.1 49.1,4.6 35.6,3.4 l 2,-1.7 c 0.4,-0.4 0.5,-1 0.1,-1.4 -0.4,-0.4 -1,-0.5 -1.4,-0.1 0,0 -3.9,3.3 -3.9,3.3 -0.5,0.4 -0.6,1.1 -0.1,1.5 z"
             inkscape:connector-curvature="0" />
        </g>
      </g>
    </g>
  </g>
</svg>
