<?xml version="1.0" encoding="UTF-8" standalone="no"?>
<svg
   xmlns:dc="http://purl.org/dc/elements/1.1/"
   xmlns:cc="http://creativecommons.org/ns#"
   xmlns:rdf="http://www.w3.org/1999/02/22-rdf-syntax-ns#"
   xmlns:svg="http://www.w3.org/2000/svg"
   xmlns="http://www.w3.org/2000/svg"
   xmlns:sodipodi="http://sodipodi.sourceforge.net/DTD/sodipodi-0.dtd"
   xmlns:inkscape="http://www.inkscape.org/namespaces/inkscape"
   viewBox="0 0 405.03653 472.5"
   x="0px"
   y="0px"
   version="1.1"
   id="svg24"
   sodipodi:docname="noun_receipt_1985066.svg"
   width="405.03653"
   height="472.5"
   inkscape:version="0.92.3 (d244b95, 2018-08-02)">
  <metadata
     id="metadata30">
    <rdf:RDF>
      <cc:Work
         rdf:about="">
        <dc:format>image/svg+xml</dc:format>
        <dc:type
           rdf:resource="http://purl.org/dc/dcmitype/StillImage" />
        <dc:title>outline receipt</dc:title>
      </cc:Work>
    </rdf:RDF>
  </metadata>
  <defs
     id="defs28" />
  <sodipodi:namedview
     pagecolor="#ffffff"
     bordercolor="#666666"
     borderopacity="1"
     objecttolerance="10"
     gridtolerance="10"
     guidetolerance="10"
     inkscape:pageopacity="0"
     inkscape:pageshadow="2"
     inkscape:window-width="1280"
     inkscape:window-height="996"
     id="namedview26"
     showgrid="false"
     fit-margin-top="10"
     fit-margin-left="10"
     fit-margin-right="10"
     fit-margin-bottom="10"
     inkscape:zoom="0.36875"
     inkscape:cx="202.53"
     inkscape:cy="172.25"
     inkscape:window-x="1366"
     inkscape:window-y="0"
     inkscape:window-maximized="1"
     inkscape:current-layer="svg24" />
  <title
     id="title2">outline receipt</title>
  <path
     d="m 40.4,462.5 h 274.42 a 30.44,30.44 0 0 0 30.4,-30.4 V 317.25 a 5.53,5.53 0 0 0 -11.06,0 V 432.1 a 19.35,19.35 0 0 1 -19.34,19.34 H 40.4 A 19.36,19.36 0 0 1 21.06,432.1 V 103.41 c 0.06,-1.42 1,-18.13 12.48,-18.13 H 50.87 A 25.62,25.62 0 0 0 76.46,59.69 v -26 a 5.53,5.53 0 1 0 -11.05,0 v 26 A 14.55,14.55 0 0 1 50.87,74.25 H 33.53 c -18,0 -23.24,18.93 -23.53,28.93 v 329 a 30.44,30.44 0 0 0 30.4,30.32 z"
     id="path4"
     inkscape:connector-curvature="0" />
  <path
     d="m 339.69,104.99 a 5.53,5.53 0 0 0 5.53,-5.52 V 40.4 A 30.44,30.44 0 0 0 314.82,10 H 76.09 A 33.92,33.92 0 0 0 51.45,20.68 L 17.29,57.14 a 5.53,5.53 0 1 0 8.07,7.55 L 59.53,28.25 a 22.82,22.82 0 0 1 16.58,-7.18 h 238.71 a 19.35,19.35 0 0 1 19.34,19.34 v 59.07 a 5.53,5.53 0 0 0 5.53,5.51 z"
     id="path6"
     inkscape:connector-curvature="0" />
  <path
     d="m 127.78,120.4 0.37,-0.36 a 5.5310397,5.5310397 0 1 0 -7.64,-8 l -0.44,0.43 a 5.53,5.53 0 1 0 7.71,7.92 z"
     id="path8"
     inkscape:connector-curvature="0" />
  <path
     d="m 108.36,137.59 a 5.53,5.53 0 0 0 -7.19,3.06 82.31,82.31 0 1 0 44.83,-45.31 5.53,5.53 0 1 0 4.25,10.21 71.25,71.25 0 1 1 -38.83,39.23 5.53,5.53 0 0 0 -3.06,-7.19 z"
     id="path10"
     inkscape:connector-curvature="0" />
  <path
     d="m 74.43,313.39 a 5.53,5.53 0 0 0 5.53,5.53 h 178.73 a 5.53,5.53 0 0 0 0,-11.05 H 79.96 a 5.53,5.53 0 0 0 -5.53,5.52 z"
     id="path12"
     inkscape:connector-curvature="0" />
  <path
     d="m 79.96,361.31 h 163.57 a 5.53,5.53 0 0 0 0,-11.06 H 79.96 a 5.53,5.53 0 1 0 0,11.05 z"
     id="path14"
     inkscape:connector-curvature="0" />
  <path
     d="m 177.61,403.71 h 97.66 c 0.1,0 0.19,0 0.29,0 a 14.34,14.34 0 0 0 9.61,-4.51 l 5.15,-5.44 A 54.05,54.05 0 0 0 301.9,375.03 L 393.78,123.15 A 20.73,20.73 0 0 0 381.05,96.44 c -10.61,-3.65 -22.45,2.17 -26.39,13 l -91.71,251.35 a 53.88,53.88 0 0 0 -3.19,21.79 l 0.43,7.48 a 15.72,15.72 0 0 0 0.41,2.59 h -83 a 5.53,5.53 0 0 0 0,11.06 z m 95.73,-39.13 91.7,-251.41 a 10.23,10.23 0 0 1 9.44,-6.81 9,9 0 0 1 3,0.5 9.69,9.69 0 0 1 5.95,12.47 l -5.46,14.92 -5.16,-1.88 a 5.53,5.53 0 1 0 -3.79,10.38 l 5.16,1.89 -82.65,226.61 a 43,43 0 0 1 -9.23,14.92 l -5.15,5.44 a 3.43,3.43 0 0 1 -5.91,-2.16 l -0.44,-7.48 a 42.89,42.89 0 0 1 2.54,-17.39 z"
     id="path16"
     inkscape:connector-curvature="0" />
  <path
     d="m 161.78,207.58 a 5.49,5.49 0 0 0 3.9,-1.62 l 50,-50 a 5.522504,5.522504 0 1 0 -7.81,-7.81 l -46.09,46.1 -14.39,-14.4 a 5.53,5.53 0 1 0 -7.82,7.82 l 18.3,18.29 a 5.5,5.5 0 0 0 3.91,1.62 z"
     id="path18"
     inkscape:connector-curvature="0" />
</svg>
