<?xml version="1.0" encoding="UTF-8" standalone="no"?>
<!-- Created with Inkscape (http://www.inkscape.org/) -->

<svg
   xmlns:dc="http://purl.org/dc/elements/1.1/"
   xmlns:cc="http://creativecommons.org/ns#"
   xmlns:rdf="http://www.w3.org/1999/02/22-rdf-syntax-ns#"
   xmlns:svg="http://www.w3.org/2000/svg"
   xmlns="http://www.w3.org/2000/svg"
   xmlns:sodipodi="http://sodipodi.sourceforge.net/DTD/sodipodi-0.dtd"
   xmlns:inkscape="http://www.inkscape.org/namespaces/inkscape"
   width="18.933332mm"
   height="18.933332mm"
   viewBox="0 0 18.933332 18.933332"
   version="1.1"
   id="svg8"
   inkscape:version="0.92.3 (d244b95, 2018-08-02)"
   sodipodi:docname="edit.svg">
  <defs
     id="defs2" />
  <sodipodi:namedview
     id="base"
     pagecolor="#ffffff"
     bordercolor="#666666"
     borderopacity="1.0"
     inkscape:pageopacity="0.0"
     inkscape:pageshadow="2"
     inkscape:zoom="1.979899"
     inkscape:cx="-77.395691"
     inkscape:cy="-24.368294"
     inkscape:document-units="mm"
     inkscape:current-layer="g880"
     showgrid="false"
     fit-margin-top="1"
     fit-margin-left="1"
     fit-margin-right="1"
     fit-margin-bottom="1"
     inkscape:window-width="1366"
     inkscape:window-height="713"
     inkscape:window-x="0"
     inkscape:window-y="27"
     inkscape:window-maximized="1" />
  <metadata
     id="metadata5">
    <rdf:RDF>
      <cc:Work
         rdf:about="">
        <dc:format>image/svg+xml</dc:format>
        <dc:type
           rdf:resource="http://purl.org/dc/dcmitype/StillImage" />
        <dc:title></dc:title>
      </cc:Work>
    </rdf:RDF>
  </metadata>
  <g
     inkscape:label="Layer 1"
     inkscape:groupmode="layer"
     id="layer1"
     transform="translate(-519.81933,-101.12067)">
    <g
       id="g880"
       transform="matrix(0.26458333,0,0,0.26458333,520.55475,101.85609)">
      <g
         id="g847">
        <g
           id="g817">
          <path
             id="path815"
             d="M 63,37 H 45.5 V 9.2 c 0,-0.6 -0.4,-1 -1,-1 H 37 l -3.6,-1 V 5.7 C 33.4,3.1 31.3,1 28.7,1 26.1,1 24,3.1 24,5.7 v 1.5 l -3.6,1 H 13 c -0.6,0 -1,0.4 -1,1 V 24.6 H 3 c -1.4,0 -2,0.7 -2,2 v 4 c 0,1.1 0.9,2 2,2 0,0 0,0 0,0 h 9 v 22.9 c 0,0.6 0.4,1 1,1 H 32 V 63 c 0,1.1 0.9,2 2,2 h 29 c 1.1,0 2,-0.9 2,-2 V 39 c 0,-1.1 -0.9,-2 -2,-2 z M 21.6,9.9 25.4,8.8 c 0.4,-0.1 0.7,-0.5 0.7,-1 V 5.7 c 0,-1.5 1.2,-2.7 2.7,-2.7 1.5,0 2.7,1.2 2.7,2.7 v 2.2 c 0,0.4 0.3,0.8 0.7,1 L 36,10 v 2.2 H 21.6 Z m 12.3,18.6 -3.8,1.9 v -3.8 z m -5.8,2 H 8.9 v -4 c 4.3,0 15,0 19.2,0 z M 3,26.5 h 3.9 v 4 H 3 Z m 11,6 h 16.1 c 0.2,0 0.3,0 0.4,-0.1 l 6,-3 c 0.3,-0.2 0.6,-0.5 0.6,-0.9 0,-0.4 -0.2,-0.7 -0.6,-0.9 l -6,-3 C 30.4,24.5 30.2,24.5 30.1,24.5 H 14 V 10.2 h 5.6 v 3 c 0,0.6 0.4,1 1,1 H 37 c 0.6,0 1,-0.4 1,-1 v -3 h 5.6 V 54.5 H 14 Z M 63,63 H 34 v -6.6 h 10.5 c 0.6,0 1,-0.4 1,-1 V 39 H 63 Z"
             inkscape:connector-curvature="0" />
        </g>
        <g
           id="g821">
          <path
             id="path819"
             d="m 22.8,40.1 h 12 c 0.6,0 1,-0.4 1,-1 0,-0.6 -0.4,-1 -1,-1 h -12 c -0.6,0 -1,0.4 -1,1 0,0.6 0.4,1 1,1 z"
             inkscape:connector-curvature="0" />
        </g>
        <g
           id="g825">
          <path
             id="path823"
             d="m 34.8,18.5 h -12 c -0.6,0 -1,0.4 -1,1 0,0.6 0.4,1 1,1 h 12 c 0.6,0 1,-0.4 1,-1 0,-0.6 -0.5,-1 -1,-1 z"
             inkscape:connector-curvature="0" />
        </g>
        <g
           id="g829">
          <path
             id="path827"
             d="m 35.8,45.1 c 0,-0.6 -0.4,-1 -1,-1 h -12 c -0.6,0 -1,0.4 -1,1 0,0.6 0.4,1 1,1 h 12 c 0.5,0 1,-0.4 1,-1 z"
             inkscape:connector-curvature="0" />
        </g>
        <g
           id="g833">
          <path
             id="path831"
             d="m 52.8,51.4 c 0.4,0.4 1,0.4 1.4,0 l 2.6,-2.6 c 0.4,-0.4 0.4,-1 0,-1.4 -0.4,-0.4 -1,-0.4 -1.4,0 l -0.9,0.9 V 43 c 0,-0.6 -0.4,-1 -1,-1 -0.6,0 -1,0.4 -1,1 v 5.3 l -0.9,-0.9 c -0.4,-0.4 -1,-0.4 -1.4,0 -0.4,0.4 -0.4,1 0,1.4 z"
             inkscape:connector-curvature="0" />
        </g>
        <g
           id="g837">
          <rect
             id="rect835"
             height="2"
             width="2"
             y="59"
             x="52.5" />
        </g>
        <g
           id="g841">
          <rect
             id="rect839"
             height="2"
             width="2"
             y="59"
             x="47.5" />
        </g>
        <g
           id="g845">
          <rect
             id="rect843"
             height="2"
             width="2"
             y="59"
             x="57.5" />
        </g>
      </g>
    </g>
  </g>
</svg>
