<?xml version="1.0" encoding="UTF-8" standalone="no"?>
<!-- Created with Inkscape (http://www.inkscape.org/) -->

<svg
   xmlns:dc="http://purl.org/dc/elements/1.1/"
   xmlns:cc="http://creativecommons.org/ns#"
   xmlns:rdf="http://www.w3.org/1999/02/22-rdf-syntax-ns#"
   xmlns:svg="http://www.w3.org/2000/svg"
   xmlns="http://www.w3.org/2000/svg"
   xmlns:sodipodi="http://sodipodi.sourceforge.net/DTD/sodipodi-0.dtd"
   xmlns:inkscape="http://www.inkscape.org/namespaces/inkscape"
   width="16.292917mm"
   height="17.933332mm"
   viewBox="0 0 16.292917 17.933332"
   version="1.1"
   id="svg8"
   inkscape:version="0.92.3 (d244b95, 2018-08-02)"
   sodipodi:docname="edit-2.svg">
  <defs
     id="defs2" />
  <sodipodi:namedview
     id="base"
     pagecolor="#ffffff"
     bordercolor="#666666"
     borderopacity="1.0"
     inkscape:pageopacity="0.0"
     inkscape:pageshadow="2"
     inkscape:zoom="2.8"
     inkscape:cx="32.832304"
     inkscape:cy="87.579625"
     inkscape:document-units="mm"
     inkscape:current-layer="g880"
     showgrid="false"
     fit-margin-top="0.5"
     fit-margin-left="0.5"
     fit-margin-right="0.5"
     fit-margin-bottom="0.5"
     inkscape:window-width="1366"
     inkscape:window-height="713"
     inkscape:window-x="0"
     inkscape:window-y="27"
     inkscape:window-maximized="1" />
  <metadata
     id="metadata5">
    <rdf:RDF>
      <cc:Work
         rdf:about="">
        <dc:format>image/svg+xml</dc:format>
        <dc:type
           rdf:resource="http://purl.org/dc/dcmitype/StillImage" />
        <dc:title></dc:title>
      </cc:Work>
    </rdf:RDF>
  </metadata>
  <g
     inkscape:label="Layer 1"
     inkscape:groupmode="layer"
     id="layer1"
     transform="translate(-94.438203,-120.32032)">
    <g
       id="g880"
       transform="matrix(0.26458333,0,0,0.26458333,93.853411,120.55574)">
      <g
         id="g847">
        <g
           id="g817">
          <path
             id="path815"
             d="M 43.6,10 H 36.9 L 36,7.2 C 35.6,5.8 34.3,4.9 32.9,4.9 H 29.2 C 28.7,2.7 26.7,1 24.4,1 22,1 20,2.7 19.5,4.9 h -3.7 c -1.4,0 -2.7,0.9 -3.1,2.3 L 11.9,10 H 5.1 c -0.6,0 -1,0.4 -1,1 v 53 c 0,0.6 0.4,1 1,1 h 38.4 c 0.6,0 1,-0.4 1,-1 V 11 c 0.1,-0.5 -0.4,-1 -0.9,-1 z M 15.8,6.9 h 4.6 c 0.6,0 1,-0.4 1,-1 0,-1.6 1.3,-2.9 2.9,-2.9 1.6,0 2.9,1.3 2.9,2.9 0,0.6 0.4,1 1,1 h 4.6 c 0.6,0 1,0.4 1.2,0.9 l 1.4,4.5 H 13.3 L 14.7,7.8 C 14.8,7.3 15.3,6.9 15.8,6.9 Z M 42.6,63 H 6.1 V 12 h 5.1 L 11,13 c -0.1,0.3 0,0.6 0.2,0.9 0.2,0.3 0.5,0.4 0.8,0.4 h 24.9 c 0.3,0 0.6,-0.2 0.8,-0.4 0.2,-0.3 0.2,-0.6 0.2,-0.9 l -0.3,-1 h 5.1 v 51 z"
             inkscape:connector-curvature="0" />
        </g>
        <g
           id="g821">
          <path
             id="path819"
             d="M 23.6,21.1 19.1,26 v -4.2 c 0,-0.6 -0.4,-1 -1,-1 h -6.8 c -0.6,0 -1,0.4 -1,1 v 6.8 c 0,0.6 0.4,1 1,1 2.2,0 3.3,0 6.8,0 0.3,0 0.6,-0.2 0.7,-0.3 0.1,-0.1 6.4,-6.9 6.3,-6.8 0.4,-0.4 0.3,-1 -0.1,-1.4 -0.4,-0.5 -1,-0.5 -1.4,0 z m -11.3,1.6 h 4.8 v 3.4 L 15.4,24.4 C 15,24 14.4,24 14,24.4 c -0.4,0.4 -0.4,1 0,1.4 l 1.7,1.7 h -3.4 z"
             inkscape:connector-curvature="0" />
        </g>
        <g
           id="g825">
          <path
             id="path823"
             d="m 23.6,34.6 -4.5,4.9 v -4.2 c 0,-0.6 -0.4,-1 -1,-1 h -6.8 c -0.6,0 -1,0.4 -1,1 V 42 c 0,0.6 0.4,1 1,1 2.2,0 3.3,0 6.8,0 0.3,0 0.6,-0.2 0.7,-0.3 0.1,-0.1 6.4,-6.9 6.3,-6.8 0.4,-0.4 0.3,-1 -0.1,-1.4 -0.4,-0.4 -1,-0.3 -1.4,0.1 z m -11.3,1.6 h 4.8 v 3.4 l -1.7,-1.7 c -0.4,-0.4 -1,-0.4 -1.4,0 -0.4,0.4 -0.4,1 0,1.4 l 1.7,1.7 h -3.4 z"
             inkscape:connector-curvature="0" />
        </g>
        <g
           id="g829">
          <path
             id="path827"
             d="M 23.6,48.1 19.1,53 v -4.2 c 0,-0.6 -0.4,-1 -1,-1 h -6.8 c -0.6,0 -1,0.4 -1,1 v 6.8 c 0,0.6 0.4,1 1,1 2.2,0 3.3,0 6.8,0 0.3,0 0.5,-0.2 0.7,-0.3 l 6.3,-6.8 c 0.4,-0.4 0.3,-1 -0.1,-1.4 -0.4,-0.5 -1,-0.4 -1.4,0 z m -11.3,1.6 h 4.8 v 3.4 L 15.4,51.4 C 15,51 14.4,51 14,51.4 c -0.4,0.4 -0.4,1 0,1.4 l 1.7,1.7 h -3.4 z"
             inkscape:connector-curvature="0" />
        </g>
        <g
           id="g833">
          <path
             id="path831"
             d="m 29.3,24.1 c -0.6,0 -1,0.4 -1,1 0,0.6 0.4,1 1,1 h 8.2 c 0.6,0 1,-0.4 1,-1 0,-0.6 -0.4,-1 -1,-1 z"
             inkscape:connector-curvature="0" />
        </g>
        <g
           id="g837">
          <path
             id="path835"
             d="m 37.4,37.6 h -8.2 c -0.6,0 -1,0.4 -1,1 0,0.6 0.4,1 1,1 h 8.2 c 0.6,0 1,-0.4 1,-1 0,-0.5 -0.4,-1 -1,-1 z"
             inkscape:connector-curvature="0" />
        </g>
        <g
           id="g841">
          <path
             id="path839"
             d="m 37.4,51.2 h -8.2 c -0.6,0 -1,0.4 -1,1 0,0.6 0.4,1 1,1 h 8.2 c 0.6,0 1,-0.4 1,-1 0,-0.6 -0.4,-1 -1,-1 z"
             inkscape:connector-curvature="0" />
        </g>
        <g
           id="g845">
          <path
             id="path843"
             d="M 60.9,13.4 H 57.5 V 9.3 c 0,-0.6 -0.4,-1 -1,-1 H 56 V 3 C 56,1.9 55.1,1 54,1 h -3 c -1.1,0 -2,0.9 -2,2 v 5.3 h -0.5 c -0.6,0 -1,0.4 -1,1 v 47.8 c 0,0.2 0,0.3 0.1,0.5 l 4,6.9 c 0.2,0.3 0.5,0.5 0.9,0.5 0.4,0 0.7,-0.2 0.9,-0.5 l 4,-6.9 c 0.1,-0.2 0.1,-0.3 0.1,-0.5 V 15.4 h 2.4 v 17.8 c 0,0.6 0.4,1 1,1 0.6,0 1,-0.4 1,-1 V 14.4 c 0,-0.6 -0.5,-1 -1,-1 z M 49.6,56.1 v -6.3 h 5.9 v 6.3 z m 0,-45.8 c 0.1,0 6.1,0 5.9,0 v 7.3 h -5.9 z m 5.9,9.2 V 42.8 H 49.6 V 19.5 Z m -5.9,28.3 v -3 h 5.9 v 3 z M 51,3 h 3 v 5.3 h -3 z m 1.5,59 -2.2,-3.9 h 4.5 z"
             inkscape:connector-curvature="0" />
        </g>
      </g>
    </g>
  </g>
</svg>
