<?xml version="1.0" encoding="UTF-8" standalone="no"?>
<svg
   xmlns:dc="http://purl.org/dc/elements/1.1/"
   xmlns:cc="http://creativecommons.org/ns#"
   xmlns:rdf="http://www.w3.org/1999/02/22-rdf-syntax-ns#"
   xmlns:svg="http://www.w3.org/2000/svg"
   xmlns="http://www.w3.org/2000/svg"
   xmlns:sodipodi="http://sodipodi.sourceforge.net/DTD/sodipodi-0.dtd"
   xmlns:inkscape="http://www.inkscape.org/namespaces/inkscape"
   version="1.1"
   x="0px"
   y="0px"
   viewBox="0 0 71.900002 75.525002"
   xml:space="preserve"
   id="svg10"
   sodipodi:docname="noun_Home_864440.svg"
   width="71.900002"
   height="75.525002"
   inkscape:version="0.92.3 (d244b95, 2018-08-02)"><metadata
     id="metadata16"><rdf:RDF><cc:Work
         rdf:about=""><dc:format>image/svg+xml</dc:format><dc:type
           rdf:resource="http://purl.org/dc/dcmitype/StillImage" /><dc:title></dc:title></cc:Work></rdf:RDF></metadata><defs
     id="defs14" /><sodipodi:namedview
     pagecolor="#ffffff"
     bordercolor="#666666"
     borderopacity="1"
     objecttolerance="10"
     gridtolerance="10"
     guidetolerance="10"
     inkscape:pageopacity="0"
     inkscape:pageshadow="2"
     inkscape:window-width="742"
     inkscape:window-height="480"
     id="namedview12"
     showgrid="false"
     fit-margin-top="1"
     fit-margin-left="1"
     fit-margin-right="1"
     fit-margin-bottom="1"
     inkscape:zoom="1.888"
     inkscape:cx="35.9"
     inkscape:cy="25.3"
     inkscape:window-x="0"
     inkscape:window-y="27"
     inkscape:window-maximized="0"
     inkscape:current-layer="svg10" /><style
     type="text/css"
     id="style2">
	.st0{fill:none;stroke:#000000;stroke-width:2;stroke-linejoin:round;stroke-miterlimit:10;}
	.st1{fill:none;stroke:#000000;stroke-width:2;stroke-miterlimit:10;}
</style><path
     d="m 70.6,31.625 -34,-30.4 c -0.4,-0.3 -1,-0.3 -1.3,0 l -34,30.4 c -0.2,0.2 -0.3,0.5 -0.3,0.7 v 41.2 c 0,0.6 0.4,1 1,1 h 24.6 c 0.6,0 1,-0.4 1,-1 v -23.2 h 16.7 v 23.2 c 0,0.6 0.4,1 1,1 h 24.6 c 0.6,0 1,-0.4 1,-1 v -41.2 c 0,-0.3 -0.1,-0.5 -0.3,-0.7 z m -1.7,40.9 H 46.3 v -23.2 c 0,-0.6 -0.4,-1 -1,-1 H 26.5 c -0.6,0 -1,0.4 -1,1 v 23.2 H 2.9 v -39.7 l 33,-29.5 33,29.5 z"
     id="path4"
     inkscape:connector-curvature="0" /></svg>