<?xml version="1.0" encoding="UTF-8" standalone="no"?>
<svg
   xmlns:dc="http://purl.org/dc/elements/1.1/"
   xmlns:cc="http://creativecommons.org/ns#"
   xmlns:rdf="http://www.w3.org/1999/02/22-rdf-syntax-ns#"
   xmlns:svg="http://www.w3.org/2000/svg"
   xmlns="http://www.w3.org/2000/svg"
   xmlns:sodipodi="http://sodipodi.sourceforge.net/DTD/sodipodi-0.dtd"
   xmlns:inkscape="http://www.inkscape.org/namespaces/inkscape"
   version="1.1"
   x="0px"
   y="0px"
   viewBox="0 0 21.420576 21.02775"
   xml:space="preserve"
   id="svg8"
   sodipodi:docname="noun_Home_677005.svg"
   width="21.420576"
   height="21.02775"
   inkscape:version="0.92.3 (d244b95, 2018-08-02)"><metadata
     id="metadata14"><rdf:RDF><cc:Work
         rdf:about=""><dc:format>image/svg+xml</dc:format><dc:type
           rdf:resource="http://purl.org/dc/dcmitype/StillImage" /><dc:title></dc:title></cc:Work></rdf:RDF></metadata><defs
     id="defs12" /><sodipodi:namedview
     pagecolor="#ffffff"
     bordercolor="#666666"
     borderopacity="1"
     objecttolerance="10"
     gridtolerance="10"
     guidetolerance="10"
     inkscape:pageopacity="0"
     inkscape:pageshadow="2"
     inkscape:window-width="1280"
     inkscape:window-height="996"
     id="namedview10"
     showgrid="false"
     fit-margin-top="1"
     fit-margin-left="1"
     fit-margin-right="1"
     fit-margin-bottom="1"
     inkscape:zoom="7.8666667"
     inkscape:cx="10.710788"
     inkscape:cy="7.5140018"
     inkscape:window-x="1366"
     inkscape:window-y="0"
     inkscape:window-maximized="1"
     inkscape:current-layer="svg8" /><path
     d="m 20.228788,8.91475 -9.15,-7.785 c -0.204,-0.173 -0.503,-0.173 -0.707,0 l -9.1800003,7.819 c -0.229,0.195 -0.257,0.539 -0.062,0.768 0.108,0.127 0.261,0.192 0.415,0.192 0.125,0 0.251,-0.043 0.353,-0.13 l 0.072,-0.062 v 9.766 c 0,0.301 0.244,0.545 0.545,0.545 H 18.870788 c 0.301,0 0.545,-0.244 0.545,-0.545 v -9.828 l 0.107,0.091 c 0.229,0.195 0.573,0.167 0.768,-0.062 0.195,-0.23 0.167,-0.574 -0.062,-0.769 z m -7.355,9.989 H 8.5127879 v -6.36 h 4.3610001 z m 5.452,0.034 h -4.361 v -6.939 c 0,-0.301 -0.244,-0.545 -0.545,-0.545 H 7.9677879 c -0.3010002,0 -0.5450002,0.244 -0.5450002,0.545 v 6.939 h -4.361 v -10.149 l 7.6640003,-6.528 7.6,6.466 z"
     id="path2"
     inkscape:connector-curvature="0" /></svg>