<?xml version="1.0" encoding="UTF-8" standalone="no"?>
<svg
   xmlns:dc="http://purl.org/dc/elements/1.1/"
   xmlns:cc="http://creativecommons.org/ns#"
   xmlns:rdf="http://www.w3.org/1999/02/22-rdf-syntax-ns#"
   xmlns:svg="http://www.w3.org/2000/svg"
   xmlns="http://www.w3.org/2000/svg"
   xmlns:sodipodi="http://sodipodi.sourceforge.net/DTD/sodipodi-0.dtd"
   xmlns:inkscape="http://www.inkscape.org/namespaces/inkscape"
   version="1.1"
   x="0px"
   y="0px"
   viewBox="0 0 19.695 24.613001"
   xml:space="preserve"
   id="svg12"
   sodipodi:docname="noun_Lock_862496.svg"
   width="19.695"
   height="24.613001"
   inkscape:version="0.92.3 (d244b95, 2018-08-02)"><metadata
     id="metadata18"><rdf:RDF><cc:Work
         rdf:about=""><dc:format>image/svg+xml</dc:format><dc:type
           rdf:resource="http://purl.org/dc/dcmitype/StillImage" /><dc:title></dc:title></cc:Work></rdf:RDF></metadata><defs
     id="defs16" /><sodipodi:namedview
     pagecolor="#ffffff"
     bordercolor="#666666"
     borderopacity="1"
     objecttolerance="10"
     gridtolerance="10"
     guidetolerance="10"
     inkscape:pageopacity="0"
     inkscape:pageshadow="2"
     inkscape:window-width="1280"
     inkscape:window-height="996"
     id="namedview14"
     showgrid="false"
     fit-margin-top="2"
     fit-margin-left="2"
     fit-margin-right="2"
     fit-margin-bottom="2"
     inkscape:zoom="7.8666667"
     inkscape:cx="9.848"
     inkscape:cy="9.306"
     inkscape:window-x="1366"
     inkscape:window-y="0"
     inkscape:window-maximized="1"
     inkscape:current-layer="svg12" /><g
     id="g6"
     transform="translate(-2.152,0.307)"><path
       d="m 12,1.693 c -2.932,0 -5.318,2.386 -5.318,5.318 v 3.103 H 5.951 c -0.992,0 -1.799,0.807 -1.799,1.798 v 8.595 c 0,0.992 0.807,1.799 1.799,1.799 h 12.097 c 0.992,0 1.799,-0.807 1.799,-1.799 v -8.595 c 0,-0.992 -0.807,-1.798 -1.799,-1.798 h -0.73 V 7.011 C 17.318,4.079 14.932,1.693 12,1.693 Z M 7.401,7.011 c 0,-2.535 2.063,-4.599 4.599,-4.599 2.536,0 4.599,2.063 4.599,4.599 v 3.103 H 7.401 Z m 10.648,3.823 c 0.595,0 1.079,0.484 1.079,1.079 v 8.595 c 0,0.595 -0.484,1.079 -1.079,1.079 H 5.951 c -0.595,0 -1.079,-0.484 -1.079,-1.079 v -8.595 c 0,-0.595 0.484,-1.079 1.079,-1.079 h 1.09 9.917 z"
       id="path2"
       inkscape:connector-curvature="0" /><path
       d="m 12,12.658 c -1.225,0 -2.221,0.996 -2.221,2.221 0,0.77 0.394,1.469 1.041,1.874 v 1.818 c 0,0.651 0.529,1.18 1.18,1.18 0.651,0 1.18,-0.529 1.18,-1.18 v -1.818 c 0.647,-0.405 1.041,-1.104 1.041,-1.874 0,-1.224 -0.996,-2.221 -2.221,-2.221 z m 0.661,3.562 c -0.123,0.061 -0.2,0.186 -0.2,0.323 v 2.029 c 0,0.254 -0.207,0.461 -0.461,0.461 -0.254,0 -0.461,-0.207 -0.461,-0.461 v -2.029 c 0,-0.137 -0.078,-0.262 -0.2,-0.323 -0.519,-0.256 -0.841,-0.77 -0.841,-1.34 0,-0.828 0.674,-1.502 1.502,-1.502 0.828,0 1.502,0.674 1.502,1.502 0,0.57 -0.322,1.084 -0.841,1.34 z"
       id="path4"
       inkscape:connector-curvature="0" /></g></svg>