<?xml version="1.0" encoding="UTF-8" standalone="no"?>
<svg
   xmlns:dc="http://purl.org/dc/elements/1.1/"
   xmlns:cc="http://creativecommons.org/ns#"
   xmlns:rdf="http://www.w3.org/1999/02/22-rdf-syntax-ns#"
   xmlns:svg="http://www.w3.org/2000/svg"
   xmlns="http://www.w3.org/2000/svg"
   xmlns:sodipodi="http://sodipodi.sourceforge.net/DTD/sodipodi-0.dtd"
   xmlns:inkscape="http://www.inkscape.org/namespaces/inkscape"
   viewBox="0 0 399.77005 469.1225"
   x="0px"
   y="0px"
   version="1.1"
   id="svg16"
   sodipodi:docname="noun_Package_1985059.svg"
   width="399.77005"
   height="469.1225"
   inkscape:version="0.92.3 (d244b95, 2018-08-02)">
  <metadata
     id="metadata22">
    <rdf:RDF>
      <cc:Work
         rdf:about="">
        <dc:format>image/svg+xml</dc:format>
        <dc:type
           rdf:resource="http://purl.org/dc/dcmitype/StillImage" />
        <dc:title>outline package</dc:title>
      </cc:Work>
    </rdf:RDF>
  </metadata>
  <defs
     id="defs20" />
  <sodipodi:namedview
     pagecolor="#ffffff"
     bordercolor="#666666"
     borderopacity="1"
     objecttolerance="10"
     gridtolerance="10"
     guidetolerance="10"
     inkscape:pageopacity="0"
     inkscape:pageshadow="2"
     inkscape:window-width="1280"
     inkscape:window-height="996"
     id="namedview18"
     showgrid="false"
     fit-margin-top="10"
     fit-margin-left="10"
     fit-margin-right="10"
     fit-margin-bottom="10"
     inkscape:zoom="0.36875"
     inkscape:cx="199.86005"
     inkscape:cy="170.54048"
     inkscape:window-x="1366"
     inkscape:window-y="0"
     inkscape:window-maximized="1"
     inkscape:current-layer="svg16" />
  <title
     id="title2">outline package</title>
  <path
     d="m 12.560053,343.67201 184.379997,114.66 0.11,0.06 a 0.5,0.5 0 0 1 0.12,0.08 l 0.27,0.13 0.29,0.13 a 3,3 0 0 0 0.39,0.14 l 0.31,0.1 a 2.57,2.57 0 0 0 0.4,0.08 l 0.32,0.07 h 0.51 0.2 a 4.4,4.4 0 0 0 0.73,-0.05 h 0.24 l 0.48,-0.1 0.27,-0.09 0.42,-0.15 0.26,-0.12 c 0.14,-0.07 0.28,-0.14 0.41,-0.22 l 0.12,-0.06 184.37,-114.66 a 5.55,5.55 0 0 0 2.61,-4.7 v -208.79 c 0,0 0,-0.06 0,-0.09 0,-0.03 0,-0.29 0,-0.43 0,-0.14 0,-0.31 -0.05,-0.47 a 1.29,1.29 0 0 1 0,-0.19 c 0,-0.14 -0.08,-0.26 -0.12,-0.4 a 4.43,4.43 0 0 0 -0.14,-0.44 1.34,1.34 0 0 0 -0.07,-0.18 c -0.06,-0.15 -0.15,-0.28 -0.22,-0.42 -0.07,-0.14 -0.09,-0.2 -0.15,-0.29 l -0.06,-0.08 c 0,0 -0.05,-0.09 -0.08,-0.14 -0.03,-0.05 -0.22,-0.26 -0.32,-0.39 -0.1,-0.13 -0.18,-0.23 -0.28,-0.33 l -0.09,-0.1 c -0.11,-0.1 -0.24,-0.19 -0.36,-0.29 -0.12,-0.1 -0.24,-0.21 -0.37,-0.3 l -0.14,-0.09 -0.07,-0.06 -184.47,-114.660003 a 5.54,5.54 0 0 0 -5.84,0 L 12.560053,125.49201 l -0.1,0.07 -0.18,0.13 a 6.1,6.1 0 0 0 -0.61,0.51 l -0.13,0.12 a 5.7,5.7 0 0 0 -0.59,0.71 l -0.12,0.19 a 5.9,5.9 0 0 0 -0.38,0.7 l -0.08,0.16 a 6.55,6.55 0 0 0 -0.27,0.89 c 0,0.07 0,0.15 0,0.23 a 6.38,6.38 0 0 0 -0.1,1 v 208.77 a 5.55,5.55 0 0 0 2.56,4.7 z m 192.829997,100 v -195.75 l 66.12,-41.12 v 53.53 a 5.51,5.51 0 0 0 5.52,5.52 5.46,5.46 0 0 0 2.92,-0.83 l 39.24,-24.44 a 5.53,5.53 0 0 0 2.61,-4.69 v -60.37 l 56.91,-35.39 v 195.77 z m -73.53,-379.370003 174,108.150003 -12.08,7.51 a 5.53,5.53 0 0 0 5.84,9.39 l 11.17,-7 v 50.45 l -28.23,17.58 v -53.53 c 0,0 0,-0.06 0,-0.09 a 3,3 0 0 0 0,-0.43 3.75,3.75 0 0 0 0,-0.47 1.29,1.29 0 0 0 0,-0.19 c 0,-0.14 -0.07,-0.27 -0.11,-0.4 l -0.14,-0.44 -0.08,-0.18 a 3.36,3.36 0 0 0 -0.22,-0.42 c -0.05,-0.1 -0.08,-0.2 -0.14,-0.3 l -0.06,-0.07 -0.09,-0.14 a 3.79,3.79 0 0 0 -0.32,-0.38 2.3,2.3 0 0 0 -0.28,-0.34 l -0.09,-0.1 -0.34,-0.28 a 3.79,3.79 0 0 0 -0.39,-0.31 1,1 0 0 0 -0.13,-0.09 l -0.08,-0.06 -176.83,-110.000003 z m 68,-42.27 173.91,108.150003 -57.5,35.76 -173.91,-108.150003 z m -107.199997,66.67 173.909997,108.150003 -66.71,41.49 -54.35,-33.76 a 5.53,5.53 0 0 0 -5.84,9.39 l 54.66,34 v 195.72 l -173.319997,-107.79 v -195.77 l 59.52,37 a 5.53,5.53 0 0 0 5.84,-9.39 l -60.42,-37.56 z"
     id="path4"
     inkscape:connector-curvature="0" />
  <path
     d="m 47.370053,292.58201 a 5.53,5.53 0 0 0 -5.51,5.48 v 17.74 a 5.53,5.53 0 0 0 11.06,0 v -17.74 a 5.53,5.53 0 0 0 -5.55,-5.48 z"
     id="path6"
     inkscape:connector-curvature="0" />
  <path
     d="m 70.240053,318.81201 a 5.53,5.53 0 0 0 -5.53,5.53 v 5.94 a 5.53,5.53 0 1 0 11.05,0 v -5.94 a 5.53,5.53 0 0 0 -5.52,-5.53 z"
     id="path8"
     inkscape:connector-curvature="0" />
  <path
     d="m 109.06005,194.86201 1.94,1.21 a 5.5247172,5.5247172 0 0 0 5.84,-9.38 l -1.98,-1.21 a 5.5220761,5.5220761 0 1 0 -5.83,9.38 z"
     id="path10"
     inkscape:connector-curvature="0" />
</svg>
