<?xml version="1.0" encoding="UTF-8" standalone="no"?>
<svg
   xmlns:dc="http://purl.org/dc/elements/1.1/"
   xmlns:cc="http://creativecommons.org/ns#"
   xmlns:rdf="http://www.w3.org/1999/02/22-rdf-syntax-ns#"
   xmlns:svg="http://www.w3.org/2000/svg"
   xmlns="http://www.w3.org/2000/svg"
   xmlns:sodipodi="http://sodipodi.sourceforge.net/DTD/sodipodi-0.dtd"
   xmlns:inkscape="http://www.inkscape.org/namespaces/inkscape"
   viewBox="0 0 59 62"
   version="1.1"
   x="0px"
   y="0px"
   id="svg76"
   sodipodi:docname="noun_liftoff_695446.svg"
   width="59"
   height="62"
   inkscape:version="0.92.3 (d244b95, 2018-08-02)">
  <metadata
     id="metadata82">
    <rdf:RDF>
      <cc:Work
         rdf:about="">
        <dc:format>image/svg+xml</dc:format>
        <dc:type
           rdf:resource="http://purl.org/dc/dcmitype/StillImage" />
        <dc:title>50 -Liftoff- (space, astronomy)</dc:title>
      </cc:Work>
    </rdf:RDF>
  </metadata>
  <defs
     id="defs80" />
  <sodipodi:namedview
     pagecolor="#ffffff"
     bordercolor="#666666"
     borderopacity="1"
     objecttolerance="10"
     gridtolerance="10"
     guidetolerance="10"
     inkscape:pageopacity="0"
     inkscape:pageshadow="2"
     inkscape:window-width="1280"
     inkscape:window-height="996"
     id="namedview78"
     showgrid="false"
     fit-margin-top="1"
     fit-margin-left="1"
     fit-margin-right="1"
     fit-margin-bottom="1"
     inkscape:zoom="3.1466667"
     inkscape:cx="29.5"
     inkscape:cy="23.5"
     inkscape:window-x="1366"
     inkscape:window-y="0"
     inkscape:window-maximized="1"
     inkscape:current-layer="svg76" />
  <title
     id="title2">50 -Liftoff- (space, astronomy)</title>
  <desc
     id="desc4">Created with Sketch.</desc>
  <g
     id="g70"
     style="fill:none;fill-rule:evenodd;stroke:none;stroke-width:1"
     transform="translate(1,1)">
    <g
       transform="translate(-1229,-862)"
       id="g68">
      <g
         transform="translate(1229,863)"
         id="g66">
        <path
           d="M 53,58 H 37 V 21.5 C 37,20.672 36.328,20 35.5,20 34.672,20 34,19.328 34,18.5 V 4.435 C 34,1.986 35.986,0 38.435,0 h 13.13 C 54.014,0 56,1.986 56,4.435 V 18.5 C 56,19.328 55.328,20 54.5,20 53.672,20 53,20.672 53,21.5 Z"
           id="path6"
           inkscape:connector-curvature="0"
           style="stroke:#000000;stroke-width:2;stroke-linecap:round;stroke-linejoin:round" />
        <path
           d="M 16,0 V 0 C 10.784,7.825 8,17.018 8,26.422 V 47 H 24 V 26.422 C 24,17.018 21.216,7.825 16,0 Z"
           id="path8"
           inkscape:connector-curvature="0"
           style="stroke:#000000;stroke-width:2;stroke-linecap:round;stroke-linejoin:round" />
        <path
           d="M 8,46 2.788,44.697 C 1.357,44.339 0.626,42.749 1.285,41.43 L 8,28 Z"
           id="path10"
           inkscape:connector-curvature="0"
           style="stroke:#000000;stroke-width:2;stroke-linecap:round;stroke-linejoin:round" />
        <path
           d="m 24,46 5.308,-1.327 c 1.381,-0.345 2.088,-1.881 1.451,-3.155 L 24,28 Z"
           id="path12"
           inkscape:connector-curvature="0"
           style="stroke:#000000;stroke-width:2;stroke-linecap:round;stroke-linejoin:round" />
        <polygon
           points="48,18 42,18 42,58 48,58 "
           id="polygon14"
           style="stroke:#000000;stroke-width:2;stroke-linecap:round;stroke-linejoin:round" />
        <path
           d="m 20.2882,8 c 0.55,1.311 1.038,2.646 1.468,4 h 12.244 V 8 Z"
           id="path16"
           inkscape:connector-curvature="0"
           style="stroke:#000000;stroke-width:2;stroke-linecap:round;stroke-linejoin:round" />
        <path
           d="M 49,18 H 41 V 9 c 0,-2.209 1.791,-4 4,-4 2.209,0 4,1.791 4,4 z"
           id="path18"
           inkscape:connector-curvature="0"
           style="stroke:#000000;stroke-width:2;stroke-linecap:round;stroke-linejoin:round" />
        <path
           d="m 42,53 h 6"
           id="path20"
           inkscape:connector-curvature="0"
           style="stroke:#000000;stroke-width:2;stroke-linecap:round;stroke-linejoin:round" />
        <path
           d="m 42,48 h 6"
           id="path22"
           inkscape:connector-curvature="0"
           style="stroke:#000000;stroke-width:2;stroke-linecap:round;stroke-linejoin:round" />
        <path
           d="m 42,43 h 6"
           id="path24"
           inkscape:connector-curvature="0"
           style="stroke:#000000;stroke-width:2;stroke-linecap:round;stroke-linejoin:round" />
        <path
           d="m 42,38 h 6"
           id="path26"
           inkscape:connector-curvature="0"
           style="stroke:#000000;stroke-width:2;stroke-linecap:round;stroke-linejoin:round" />
        <path
           d="m 42,33 h 6"
           id="path28"
           inkscape:connector-curvature="0"
           style="stroke:#000000;stroke-width:2;stroke-linecap:round;stroke-linejoin:round" />
        <path
           d="m 42,28 h 6"
           id="path30"
           inkscape:connector-curvature="0"
           style="stroke:#000000;stroke-width:2;stroke-linecap:round;stroke-linejoin:round" />
        <path
           d="m 42,23 h 6"
           id="path32"
           inkscape:connector-curvature="0"
           style="stroke:#000000;stroke-width:2;stroke-linecap:round;stroke-linejoin:round" />
        <path
           d="m 17.7639,23 h -3.528 c -1.23,0 -2.236,-1.006 -2.236,-2.236 v -0.528 c 0,-1.23 1.006,-2.236 2.236,-2.236 h 3.528 c 1.23,0 2.236,1.006 2.236,2.236 v 0.528 c 0,1.23 -1.006,2.236 -2.236,2.236 z"
           id="path34"
           inkscape:connector-curvature="0"
           style="stroke:#000000;stroke-width:2;stroke-linecap:round;stroke-linejoin:round" />
        <path
           d="m 6,57 c 0,0.552 -0.448,1 -1,1 -0.552,0 -1,-0.448 -1,-1 0,-0.552 0.448,-1 1,-1 0.552,0 1,0.448 1,1"
           id="path36"
           inkscape:connector-curvature="0"
           style="fill:#000000" />
        <path
           d="m 2,53 c 0,0.552 -0.448,1 -1,1 -0.552,0 -1,-0.448 -1,-1 0,-0.552 0.448,-1 1,-1 0.552,0 1,0.448 1,1"
           id="path38"
           inkscape:connector-curvature="0"
           style="fill:#000000" />
        <path
           d="m 8,53 c 0,0.552 -0.448,1 -1,1 -0.552,0 -1,-0.448 -1,-1 0,-0.552 0.448,-1 1,-1 0.552,0 1,0.448 1,1"
           id="path40"
           inkscape:connector-curvature="0"
           style="fill:#000000" />
        <path
           d="m 26,57 c 0,0.552 0.448,1 1,1 0.552,0 1,-0.448 1,-1 0,-0.552 -0.448,-1 -1,-1 -0.552,0 -1,0.448 -1,1"
           id="path42"
           inkscape:connector-curvature="0"
           style="fill:#000000" />
        <path
           d="m 30,53 c 0,0.552 0.448,1 1,1 0.552,0 1,-0.448 1,-1 0,-0.552 -0.448,-1 -1,-1 -0.552,0 -1,0.448 -1,1"
           id="path44"
           inkscape:connector-curvature="0"
           style="fill:#000000" />
        <path
           d="m 24,53 c 0,0.552 0.448,1 1,1 0.552,0 1,-0.448 1,-1 0,-0.552 -0.448,-1 -1,-1 -0.552,0 -1,0.448 -1,1"
           id="path46"
           inkscape:connector-curvature="0"
           style="fill:#000000" />
        <path
           d="m 14.125,47 h -2.727 c -0.646,1.538 -0.496,3.348 0.482,4.815 L 16,58 20.12,51.831 C 21.099,50.363 21.249,48.543 20.601,47 h -2.726 z"
           id="path48"
           inkscape:connector-curvature="0"
           style="stroke:#000000;stroke-width:2;stroke-linejoin:round" />
        <path
           d="m 8,43 h 5"
           id="path50"
           inkscape:connector-curvature="0"
           style="stroke:#000000;stroke-width:2;stroke-linecap:round;stroke-linejoin:round" />
        <path
           d="m 8,39 h 3"
           id="path52"
           inkscape:connector-curvature="0"
           style="stroke:#000000;stroke-width:2;stroke-linecap:round;stroke-linejoin:round" />
        <path
           d="m 8,35 h 5"
           id="path54"
           inkscape:connector-curvature="0"
           style="stroke:#000000;stroke-width:2;stroke-linecap:round;stroke-linejoin:round" />
        <path
           d="m 8,31 h 3"
           id="path56"
           inkscape:connector-curvature="0"
           style="stroke:#000000;stroke-width:2;stroke-linecap:round;stroke-linejoin:round" />
        <path
           d="m 19,43 h 5"
           id="path58"
           inkscape:connector-curvature="0"
           style="stroke:#000000;stroke-width:2;stroke-linecap:round;stroke-linejoin:round" />
        <path
           d="m 21,39 h 3"
           id="path60"
           inkscape:connector-curvature="0"
           style="stroke:#000000;stroke-width:2;stroke-linecap:round;stroke-linejoin:round" />
        <path
           d="m 19,35 h 5"
           id="path62"
           inkscape:connector-curvature="0"
           style="stroke:#000000;stroke-width:2;stroke-linecap:round;stroke-linejoin:round" />
        <path
           d="m 21,31 h 3"
           id="path64"
           inkscape:connector-curvature="0"
           style="stroke:#000000;stroke-width:2;stroke-linecap:round;stroke-linejoin:round" />
      </g>
    </g>
  </g>
</svg>
