<?xml version="1.0" encoding="UTF-8" standalone="no"?>
<!-- Created with Inkscape (http://www.inkscape.org/) -->

<svg
   xmlns:dc="http://purl.org/dc/elements/1.1/"
   xmlns:cc="http://creativecommons.org/ns#"
   xmlns:rdf="http://www.w3.org/1999/02/22-rdf-syntax-ns#"
   xmlns:svg="http://www.w3.org/2000/svg"
   xmlns="http://www.w3.org/2000/svg"
   xmlns:sodipodi="http://sodipodi.sourceforge.net/DTD/sodipodi-0.dtd"
   xmlns:inkscape="http://www.inkscape.org/namespaces/inkscape"
   width="18.464996mm"
   height="18.464996mm"
   viewBox="0 0 18.464996 18.464996"
   version="1.1"
   id="svg8"
   inkscape:version="0.92.3 (d244b95, 2018-08-02)"
   sodipodi:docname="logs.svg">
  <defs
     id="defs2" />
  <sodipodi:namedview
     id="base"
     pagecolor="#ffffff"
     bordercolor="#666666"
     borderopacity="1.0"
     inkscape:pageopacity="0.0"
     inkscape:pageshadow="2"
     inkscape:zoom="3.959798"
     inkscape:cx="53.15791"
     inkscape:cy="-48.310187"
     inkscape:document-units="mm"
     inkscape:current-layer="g904"
     showgrid="false"
     fit-margin-top="0.5"
     fit-margin-left="0.5"
     fit-margin-right="0.5"
     fit-margin-bottom="0.5"
     inkscape:window-width="1280"
     inkscape:window-height="996"
     inkscape:window-x="1366"
     inkscape:window-y="0"
     inkscape:window-maximized="1" />
  <metadata
     id="metadata5">
    <rdf:RDF>
      <cc:Work
         rdf:about="">
        <dc:format>image/svg+xml</dc:format>
        <dc:type
           rdf:resource="http://purl.org/dc/dcmitype/StillImage" />
        <dc:title></dc:title>
      </cc:Work>
    </rdf:RDF>
  </metadata>
  <g
     inkscape:label="Layer 1"
     inkscape:groupmode="layer"
     id="layer1"
     transform="translate(-55.779406,-74.074937)">
    <g
       id="g904"
       transform="matrix(0.26458333,0,0,0.26458333,56.281903,74.574937)">
      <g
         id="g863">
        <g
           id="g817">
          <path
             id="path815"
             d="M 15,35.8 C 15.2,35.3 14.9,34.7 14.4,34.5 8.9,32.6 5.9,26.5 7.8,20.9 8,20.4 7.7,19.8 7.2,19.6 6.7,19.4 6.1,19.7 5.9,20.2 3.7,26.8 7.2,34 13.8,36.3 c 0.4,0.3 1,0 1.2,-0.5 z"
             inkscape:connector-curvature="0" />
        </g>
        <g
           id="g821">
          <path
             id="path819"
             d="M 42.4,11.1 V 8.5 h 6 c 0.6,0 1,-0.4 1,-1 V 1 C 49.4,0.4 49,0 48.4,0 H 34.6 c -0.6,0 -1,0.4 -1,1 v 6.5 c 0,0.6 0.4,1 1,1 h 5.8 v 2.6 C 37.2,11.2 34.1,12 31.2,13.3 29.2,10.8 26.5,8.9 23.4,7.9 14.1,4.6 4.2,9.6 1.1,18.7 c -3,8.8 1.5,18.5 10,22.1 L 9.6,45.2 6.4,44 C 6.1,43.9 5.9,43.9 5.6,44 5.4,44.1 5.2,44.3 5.1,44.6 L 0.3,58.7 c -1,2.8 0.5,6 3.4,7 2.9,1 6,-0.5 6.9,-3.4 l 4.8,-14.1 c 0.2,-0.5 -0.1,-1.1 -0.6,-1.3 L 11.5,45.8 13,41.4 c 1.5,0.4 3.1,0.7 4.6,0.7 2.9,10.8 12.5,18.3 23.8,18.3 C 55,60.4 66,49.3 66,35.7 66,22.5 55.5,11.7 42.4,11.1 Z M 35.6,2 H 47.4 V 6.5 H 35.6 Z M 8.7,61.7 C 8.1,63.5 6.1,64.5 4.3,63.8 2.5,63.2 1.5,61.2 2.2,59.4 l 4.5,-13.2 6.5,2.3 z M 3,19.3 C 5.7,11.2 14.5,6.9 22.7,9.7 c 8.2,2.9 12.6,11.8 9.7,19.9 -3,8.3 -11.5,12.5 -19.7,9.6 C 4.6,36.4 0.2,27.4 3,19.3 Z M 41.4,58.4 C 31.2,58.4 22.5,51.7 19.7,42.1 26.3,41.4 32,37 34.4,30.4 36.2,25.5 35.6,19.9 32.5,15 c 2.8,-1.2 5.8,-1.8 9,-1.8 C 53.8,13.1 64,23.3 64,35.7 64,48.2 53.8,58.4 41.4,58.4 Z"
             inkscape:connector-curvature="0" />
        </g>
        <g
           id="g825">
          <path
             id="path823"
             d="m 41.4,19.8 c 0.6,0 1,-0.4 1,-1 v -2.7 c 0,-0.6 -0.4,-1 -1,-1 -0.6,0 -1,0.4 -1,1 v 2.7 c 0,0.6 0.4,1 1,1 z"
             inkscape:connector-curvature="0" />
        </g>
        <g
           id="g829">
          <path
             id="path827"
             d="m 41.4,51.6 c -0.6,0 -1,0.4 -1,1 v 2.7 c 0,0.6 0.4,1 1,1 0.6,0 1,-0.4 1,-1 v -2.7 c 0,-0.5 -0.5,-1 -1,-1 z"
             inkscape:connector-curvature="0" />
        </g>
        <g
           id="g833">
          <path
             id="path831"
             d="m 61,34.7 h -2.7 c -0.6,0 -1,0.4 -1,1 0,0.6 0.4,1 1,1 H 61 c 0.6,0 1,-0.4 1,-1 0,-0.5 -0.4,-1 -1,-1 z"
             inkscape:connector-curvature="0" />
        </g>
        <g
           id="g837">
          <path
             id="path835"
             d="m 49.4,22 c 0.5,0.3 1.1,0.1 1.4,-0.4 l 1.4,-2.4 c 0.3,-0.5 0.1,-1.1 -0.4,-1.4 -0.5,-0.3 -1.1,-0.1 -1.4,0.4 L 49,20.6 c -0.3,0.5 -0.1,1.1 0.4,1.4 z"
             inkscape:connector-curvature="0" />
        </g>
        <g
           id="g841">
          <path
             id="path839"
             d="M 33.4,49.5 C 32.9,49.2 32.3,49.4 32,49.9 l -1.4,2.4 c -0.3,0.5 -0.1,1.1 0.4,1.4 0.5,0.3 1.1,0.1 1.4,-0.4 l 1.4,-2.4 c 0.2,-0.5 0.1,-1.1 -0.4,-1.4 z"
             inkscape:connector-curvature="0" />
        </g>
        <g
           id="g845">
          <path
             id="path843"
             d="M 58.9,44.7 56.5,43.3 C 56,43 55.4,43.2 55.1,43.7 c -0.3,0.5 -0.1,1.1 0.4,1.4 l 2.4,1.4 c 0.5,0.3 1.1,0.1 1.4,-0.4 0.2,-0.5 0,-1.1 -0.4,-1.4 z"
             inkscape:connector-curvature="0" />
        </g>
        <g
           id="g849">
          <path
             id="path847"
             d="m 56.3,27.7 2.3,-1.4 C 59.1,26 59.2,25.4 58.9,24.9 58.6,24.4 58,24.3 57.5,24.6 L 55.2,26 c -0.5,0.3 -0.6,0.9 -0.3,1.4 0.3,0.5 0.9,0.6 1.4,0.3 z"
             inkscape:connector-curvature="0" />
        </g>
        <g
           id="g853">
          <path
             id="path851"
             d="m 26.5,43.7 -2.3,1.4 c -0.5,0.3 -0.6,0.9 -0.3,1.4 0.3,0.5 0.9,0.6 1.4,0.3 l 2.3,-1.4 c 0.5,-0.3 0.6,-0.9 0.3,-1.4 -0.4,-0.4 -1,-0.5 -1.4,-0.3 z"
             inkscape:connector-curvature="0" />
        </g>
        <g
           id="g857">
          <path
             id="path855"
             d="m 51.1,49.6 c -0.3,-0.5 -0.9,-0.6 -1.4,-0.3 -0.5,0.3 -0.6,0.9 -0.3,1.4 l 1.4,2.3 c 0.3,0.5 0.9,0.6 1.4,0.3 0.5,-0.3 0.6,-0.9 0.3,-1.4 z"
             inkscape:connector-curvature="0" />
        </g>
        <g
           id="g861">
          <path
             id="path859"
             d="m 49.2,46.7 -5.1,-7.9 c 0.8,-0.8 1.3,-1.8 1.3,-3 0,-1.9 -1.3,-3.5 -3,-4 v -8.9 c 0,-0.6 -0.4,-1 -1,-1 -0.6,0 -1,0.4 -1,1 v 8.9 c -1.7,0.5 -3,2.1 -3,4 0,2.3 1.8,4.1 4,4.1 0.3,0 0.7,-0.1 1,-0.1 l 5.2,8 c 0.3,0.5 0.9,0.6 1.4,0.3 0.4,-0.3 0.5,-0.9 0.2,-1.4 z m -9.9,-11 c 0,-1.2 0.9,-2.1 2,-2.1 1.1,0 2,1 2,2.1 0,1.2 -0.9,2.1 -2,2.1 -1.1,0.1 -2,-0.9 -2,-2.1 z"
             inkscape:connector-curvature="0" />
        </g>
      </g>
    </g>
  </g>
</svg>
