<?xml version="1.0" encoding="UTF-8" standalone="no"?>
<svg
   xmlns:dc="http://purl.org/dc/elements/1.1/"
   xmlns:cc="http://creativecommons.org/ns#"
   xmlns:rdf="http://www.w3.org/1999/02/22-rdf-syntax-ns#"
   xmlns:svg="http://www.w3.org/2000/svg"
   xmlns="http://www.w3.org/2000/svg"
   xmlns:sodipodi="http://sodipodi.sourceforge.net/DTD/sodipodi-0.dtd"
   xmlns:inkscape="http://www.inkscape.org/namespaces/inkscape"
   viewBox="0 0 69.760627 79.660629"
   version="1.1"
   x="0px"
   y="0px"
   id="svg52"
   sodipodi:docname="rocket.svg"
   width="69.760628"
   height="79.660629"
   inkscape:version="0.92.3 (d244b95, 2018-08-02)">
  <metadata
     id="metadata58">
    <rdf:RDF>
      <cc:Work
         rdf:about="">
        <dc:format>image/svg+xml</dc:format>
        <dc:type
           rdf:resource="http://purl.org/dc/dcmitype/StillImage" />
        <dc:title>45 -Rocket- (space, astronomy)</dc:title>
      </cc:Work>
    </rdf:RDF>
  </metadata>
  <defs
     id="defs56" />
  <sodipodi:namedview
     pagecolor="#ffffff"
     bordercolor="#666666"
     borderopacity="1"
     objecttolerance="10"
     gridtolerance="10"
     guidetolerance="10"
     inkscape:pageopacity="0"
     inkscape:pageshadow="2"
     inkscape:window-width="1280"
     inkscape:window-height="996"
     id="namedview54"
     showgrid="false"
     fit-margin-top="1"
     fit-margin-left="1"
     fit-margin-right="1"
     fit-margin-bottom="1"
     inkscape:zoom="3.1466667"
     inkscape:cx="-21.410789"
     inkscape:cy="32.341528"
     inkscape:window-x="1366"
     inkscape:window-y="0"
     inkscape:window-maximized="1"
     inkscape:current-layer="svg52" />
  <title
     id="title2">45 -Rocket- (space, astronomy)</title>
  <desc
     id="desc4">Created with Sketch.</desc>
  <g
     id="g46"
     style="fill:none;fill-rule:evenodd;stroke:none;stroke-width:1"
     transform="rotate(45,19.982438,40.551217)">
    <g
       transform="translate(-626,-862)"
       id="g44">
      <g
         transform="translate(627,863)"
         id="g42">
        <path
           d="m 52,33 c 0,0.552 -0.448,1 -1,1 -0.552,0 -1,-0.448 -1,-1 0,-0.552 0.448,-1 1,-1 0.552,0 1,0.448 1,1"
           id="path6"
           inkscape:connector-curvature="0"
           style="fill:#000000" />
        <path
           d="m 57,9 c 0,0.552 -0.448,1 -1,1 -0.552,0 -1,-0.448 -1,-1 0,-0.552 0.448,-1 1,-1 0.552,0 1,0.448 1,1"
           id="path8"
           inkscape:connector-curvature="0"
           style="fill:#000000" />
        <path
           d="m 3,48 c 0,0.552 -0.448,1 -1,1 -0.552,0 -1,-0.448 -1,-1 0,-0.552 0.448,-1 1,-1 0.552,0 1,0.448 1,1"
           id="path10"
           inkscape:connector-curvature="0"
           style="fill:#000000" />
        <path
           d="m 9,23 c 0,0.552 -0.448,1 -1,1 -0.552,0 -1,-0.448 -1,-1 0,-0.552 0.448,-1 1,-1 0.552,0 1,0.448 1,1"
           id="path12"
           inkscape:connector-curvature="0"
           style="fill:#000000" />
        <path
           d="M 8,4 C 5.789,4 4,2.211 4,0 4,2.211 2.211,4 0,4 2.211,4 4,5.789 4,8 4,5.789 5.789,4 8,4 Z"
           id="path14"
           inkscape:connector-curvature="0"
           style="stroke:#000000;stroke-width:2;stroke-linecap:round;stroke-linejoin:round" />
        <polygon
           points="53,56 50,53 53,50 56,53 "
           id="polygon16"
           style="stroke:#000000;stroke-width:2;stroke-linecap:round" />
        <path
           d="M 53,50 V 48"
           id="path18"
           inkscape:connector-curvature="0"
           style="stroke:#000000;stroke-width:2;stroke-linecap:round" />
        <path
           d="m 56,53 h 2"
           id="path20"
           inkscape:connector-curvature="0"
           style="stroke:#000000;stroke-width:2;stroke-linecap:round" />
        <path
           d="m 53,56 v 2"
           id="path22"
           inkscape:connector-curvature="0"
           style="stroke:#000000;stroke-width:2;stroke-linecap:round" />
        <path
           d="M 50,53 H 48"
           id="path24"
           inkscape:connector-curvature="0"
           style="stroke:#000000;stroke-width:2;stroke-linecap:round" />
        <path
           d="m 32,40 c 0,4.971 -1.343,9 -3,9 -1.657,0 -3,-4.029 -3,-9 0,-4.971 1.343,-9 3,-9 1.657,0 3,4.029 3,9 z"
           id="path26"
           inkscape:connector-curvature="0"
           style="stroke:#000000;stroke-width:2;stroke-linejoin:round" />
        <path
           d="M 40,27 C 40,24.271 39.856,21.885 39.677,19.974 39.316,16.114 38.388,12.317 36.731,8.812 33.208,1.362 29,0 29,0 29,0 24.792,1.362 21.269,8.812 19.612,12.317 18.684,16.114 18.323,19.974 18.144,21.885 18,24.271 18,27 c 0,0 -0.125,11.875 3,15 0,0 1.507,2.108 5.463,2.787 C 26.171,43.399 26,41.761 26,40 c 0,-4.971 1.343,-9 3,-9 1.657,0 3,4.029 3,9 0,1.761 -0.171,3.399 -0.463,4.787 C 35.493,44.108 37,42 37,42 40.125,38.875 40,27 40,27 Z"
           id="path28"
           inkscape:connector-curvature="0"
           style="stroke:#000000;stroke-width:2;stroke-linejoin:round" />
        <path
           d="m 40,31 -0.151,0.302 C 39.589,35.03 38.888,40.112 37,42 c 0,0 -0.017,0.023 -0.043,0.055 -0.006,0.008 -0.006,0.008 -0.014,0.017 -0.03,0.037 -0.071,0.086 -0.128,0.148 -0.011,0.012 -0.015,0.018 -0.027,0.031 l 6.593,4.616 C 44.063,47.344 45,46.856 45,46.024 V 42 C 45,34.125 40,31 40,31 Z"
           id="path30"
           inkscape:connector-curvature="0"
           style="stroke:#000000;stroke-width:2;stroke-linejoin:round" />
        <path
           d="m 21.0568,42.0723 c -0.008,-0.009 -0.008,-0.009 -0.014,-0.017 -0.026,-0.032 -0.043,-0.055 -0.043,-0.055 -1.888,-1.889 -2.589,-6.97 -2.849,-10.698 l -0.151,-0.302 c 0,0 -5,3.125 -5,11 v 4.024 c 0,0.832 0.937,1.32 1.619,0.843 l 6.593,-4.616 c -0.011,-0.013 -0.015,-0.019 -0.026,-0.031 -0.057,-0.062 -0.099,-0.111 -0.129,-0.148 z"
           id="path32"
           inkscape:connector-curvature="0"
           style="stroke:#000000;stroke-width:2;stroke-linejoin:round" />
        <path
           d="m 32.5524,45.421 c 0,0 -0.338,-0.389 -0.989,-0.76 -0.527,2.598 -1.476,4.339 -2.563,4.339 -1.087,0 -2.036,-1.74 -2.563,-4.337 -0.329,0.196 -0.664,0.432 -0.99,0.758 -1.712,1.712 -1.911,4.38 -0.567,6.394 l 4.12,6.185 4.12,-6.169 c 1.343,-2.015 1.144,-4.698 -0.568,-6.41 z"
           id="path34"
           inkscape:connector-curvature="0"
           style="stroke:#000000;stroke-width:2;stroke-linejoin:round" />
        <path
           d="m 36,20 c 0,3.866 -3.134,7 -7,7 -3.866,0 -7,-3.134 -7,-7 0,-3.866 3.134,-7 7,-7 3.866,0 7,3.134 7,7 z"
           id="path36"
           inkscape:connector-curvature="0"
           style="stroke:#000000;stroke-width:2;stroke-linejoin:round" />
        <path
           d="m 32,20 c 0,1.657 -1.343,3 -3,3 -1.657,0 -3,-1.343 -3,-3 0,-1.657 1.343,-3 3,-3 1.657,0 3,1.343 3,3 z"
           id="path38"
           inkscape:connector-curvature="0"
           style="stroke:#000000;stroke-width:2;stroke-linejoin:round" />
        <path
           d="M 29,9 C 31.597,9 33.957,8.203 35.733,6.903 32.461,1.136 29,0 29,0 29,0 25.539,1.136 22.267,6.903 24.043,8.203 26.403,9 29,9 Z"
           id="path40"
           inkscape:connector-curvature="0"
           style="stroke:#000000;stroke-width:2;stroke-linejoin:round" />
      </g>
    </g>
  </g>
</svg>
