<?xml version="1.0" encoding="UTF-8" standalone="no"?>
<svg
   xmlns:dc="http://purl.org/dc/elements/1.1/"
   xmlns:cc="http://creativecommons.org/ns#"
   xmlns:rdf="http://www.w3.org/1999/02/22-rdf-syntax-ns#"
   xmlns:svg="http://www.w3.org/2000/svg"
   xmlns="http://www.w3.org/2000/svg"
   xmlns:sodipodi="http://sodipodi.sourceforge.net/DTD/sodipodi-0.dtd"
   xmlns:inkscape="http://www.inkscape.org/namespaces/inkscape"
   version="1.1"
   x="0px"
   y="0px"
   viewBox="0 0 48.049999 50.015316"
   xml:space="preserve"
   id="svg8"
   sodipodi:docname="noun_Shirt_1075488.svg"
   width="48.049999"
   height="50.015316"
   inkscape:version="0.92.3 (d244b95, 2018-08-02)"><metadata
     id="metadata14"><rdf:RDF><cc:Work
         rdf:about=""><dc:format>image/svg+xml</dc:format><dc:type
           rdf:resource="http://purl.org/dc/dcmitype/StillImage" /><dc:title></dc:title></cc:Work></rdf:RDF></metadata><defs
     id="defs12" /><sodipodi:namedview
     pagecolor="#ffffff"
     bordercolor="#666666"
     borderopacity="1"
     objecttolerance="10"
     gridtolerance="10"
     guidetolerance="10"
     inkscape:pageopacity="0"
     inkscape:pageshadow="2"
     inkscape:window-width="742"
     inkscape:window-height="480"
     id="namedview10"
     showgrid="false"
     fit-margin-top="1"
     fit-margin-left="1"
     fit-margin-right="1"
     fit-margin-bottom="1"
     inkscape:zoom="3.9333333"
     inkscape:cx="24.025"
     inkscape:cy="19"
     inkscape:window-x="0"
     inkscape:window-y="27"
     inkscape:window-maximized="0"
     inkscape:current-layer="svg8" /><path
     d="m 46.425,5.3153144 -7.1,-3.1 v 0.1 c -0.9,-0.3 -3.6,-0.6 -8,-1.3 -0.6,-0.10000003 -1.1,0.3 -1.1,0.9 -0.2,3.3 -2.9,5.9 -6.2,5.9 -3.3,0 -6,-2.6 -6.2,-5.8 0,-0.6 -0.6,-1 -1.1,-0.9 -4.5,0.6 -7.2,1 -8.1,1.2 v -0.1 l -7,3.1 c -0.5,0.2 -0.7,0.7 -0.6,1.2 l 3.1,9.5999996 c 0.1,0.4 0.5,0.7 1,0.7 h 3.6 c 0.3,10.2 0,20.7 -0.8,31.1 0,0.6 0.4,1.1 1,1.1 h 30.2 c 0.6,0 1,-0.5 1,-1.1 -0.8,-10.4 -1.1,-20.9 -0.8,-31.1 h 3.6 c 0.4,0 0.8,-0.3 1,-0.7 l 3.1,-9.5999996 c 0.1,-0.5 -0.1,-1 -0.6,-1.2 z m -4.2,9.4999996 h -3.9 c -0.5,0 -1,0.4 -1,1 -0.3,10.2 -0.1,20.7 0.7,31.2 h -28.1 c 0.8,-10.5 1,-21 0.7,-31.3 0,-0.5 -0.5,-1 -1,-1 h -3.8 l -2.6,-7.9999996 6.1,-2.7 c 0.7,-0.1 4,-0.6 6.7,-0.9 0.7,3.8 4,6.6 8,6.6 4,0 7.3,-2.8 8,-6.6 2.7,0.4 6,0.9 6.7,1 l 6.1,2.6 z"
     id="path2"
     inkscape:connector-curvature="0" /></svg>