<?xml version="1.0" encoding="UTF-8" standalone="no"?>
<svg
   xmlns:dc="http://purl.org/dc/elements/1.1/"
   xmlns:cc="http://creativecommons.org/ns#"
   xmlns:rdf="http://www.w3.org/1999/02/22-rdf-syntax-ns#"
   xmlns:svg="http://www.w3.org/2000/svg"
   xmlns="http://www.w3.org/2000/svg"
   xmlns:sodipodi="http://sodipodi.sourceforge.net/DTD/sodipodi-0.dtd"
   xmlns:inkscape="http://www.inkscape.org/namespaces/inkscape"
   version="1.1"
   x="0px"
   y="0px"
   viewBox="0 0 50 55"
   xml:space="preserve"
   id="svg8"
   sodipodi:docname="noun_bag_1951858.svg"
   width="50"
   height="55"
   inkscape:version="0.92.3 (d244b95, 2018-08-02)"><metadata
     id="metadata14"><rdf:RDF><cc:Work
         rdf:about=""><dc:format>image/svg+xml</dc:format><dc:type
           rdf:resource="http://purl.org/dc/dcmitype/StillImage" /><dc:title></dc:title></cc:Work></rdf:RDF></metadata><defs
     id="defs12" /><sodipodi:namedview
     pagecolor="#ffffff"
     bordercolor="#666666"
     borderopacity="1"
     objecttolerance="10"
     gridtolerance="10"
     guidetolerance="10"
     inkscape:pageopacity="0"
     inkscape:pageshadow="2"
     inkscape:window-width="742"
     inkscape:window-height="480"
     id="namedview10"
     showgrid="false"
     fit-margin-top="1"
     fit-margin-left="1"
     fit-margin-right="1"
     fit-margin-bottom="1"
     inkscape:zoom="2.95"
     inkscape:cx="25"
     inkscape:cy="20"
     inkscape:window-x="0"
     inkscape:window-y="27"
     inkscape:window-maximized="0"
     inkscape:current-layer="svg8" /><path
     d="M 46,18 H 43 V 14.9 C 43,7.2 37.4,1 30.5,1 h -11 C 12.6,1 7,7.2 7,14.9 V 18 H 4 c -1.7,0 -3,1.3 -3,3 v 26 c 0,3.9 3.1,7 7,7 h 34 c 3.9,0 7,-3.1 7,-7 V 21 c 0,-1.7 -1.3,-3 -3,-3 z M 9,14.9 C 9,8.3 13.7,3 19.5,3 h 11 C 36.3,3 41,8.3 41,14.9 V 18 H 9 Z M 4,20 h 3 v 8.1 c 0,0.6 0.4,1 1,1 0.6,0 1,-0.4 1,-1 V 20 h 32 v 8.1 c 0,0.6 0.4,1 1,1 0.6,0 1,-0.4 1,-1 V 20 h 3 c 0.6,0 1,0.4 1,1 V 45 H 3 V 21 C 3,20.4 3.4,20 4,20 Z M 42,52 H 8 C 5.2,52 3,49.8 3,47 h 44 c 0,2.8 -2.2,5 -5,5 z"
     id="path2"
     inkscape:connector-curvature="0" /></svg>