<?xml version="1.0" encoding="UTF-8" standalone="no"?>
<svg
   xmlns:dc="http://purl.org/dc/elements/1.1/"
   xmlns:cc="http://creativecommons.org/ns#"
   xmlns:rdf="http://www.w3.org/1999/02/22-rdf-syntax-ns#"
   xmlns:svg="http://www.w3.org/2000/svg"
   xmlns="http://www.w3.org/2000/svg"
   xmlns:sodipodi="http://sodipodi.sourceforge.net/DTD/sodipodi-0.dtd"
   xmlns:inkscape="http://www.inkscape.org/namespaces/inkscape"
   version="1.1"
   x="0px"
   y="0px"
   viewBox="0 0 20.761 19.254999"
   xml:space="preserve"
   id="svg12"
   sodipodi:docname="noun_User_939166.svg"
   width="20.761"
   height="19.254999"
   inkscape:version="0.92.3 (d244b95, 2018-08-02)"><metadata
     id="metadata18"><rdf:RDF><cc:Work
         rdf:about=""><dc:format>image/svg+xml</dc:format><dc:type
           rdf:resource="http://purl.org/dc/dcmitype/StillImage" /><dc:title></dc:title></cc:Work></rdf:RDF></metadata><defs
     id="defs16" /><sodipodi:namedview
     pagecolor="#ffffff"
     bordercolor="#666666"
     borderopacity="1"
     objecttolerance="10"
     gridtolerance="10"
     guidetolerance="10"
     inkscape:pageopacity="0"
     inkscape:pageshadow="2"
     inkscape:window-width="1280"
     inkscape:window-height="996"
     id="namedview14"
     showgrid="false"
     fit-margin-top="2"
     fit-margin-left="2"
     fit-margin-right="2"
     fit-margin-bottom="2"
     inkscape:zoom="7.8666667"
     inkscape:cx="-4.7471186"
     inkscape:cy="6.628"
     inkscape:window-x="1366"
     inkscape:window-y="0"
     inkscape:window-maximized="1"
     inkscape:current-layer="svg12" /><g
     id="g6"
     transform="translate(-1.62,-2.373)"><path
       d="m 12,11.837 c 2.058,0 3.731,-1.674 3.731,-3.732 0,-2.058 -1.674,-3.732 -3.731,-3.732 -2.059,0 -3.732,1.674 -3.732,3.732 0,2.058 1.673,3.732 3.732,3.732 z m 0,-6.788 c 1.685,0 3.056,1.371 3.056,3.056 0,1.685 -1.372,3.056 -3.056,3.056 -1.684,0 -3.055,-1.371 -3.055,-3.056 0,-1.685 1.37,-3.056 3.055,-3.056 z"
       id="path2"
       inkscape:connector-curvature="0" /><path
       d="m 12,12.457 c -4.545,0 -8.38,2.545 -8.38,4.144 v 2.688 c 0,0.188 0.151,0.339 0.338,0.339 h 16.083 c 0.188,0 0.34,-0.151 0.34,-0.339 V 16.393 C 20.38,14.838 16.626,12.457 12,12.457 Z m 0,0.676 c 4.373,0 7.703,2.173 7.703,3.26 V 18.95 H 4.296 V 16.6 c 0,-1.034 3.253,-3.467 7.704,-3.467 z"
       id="path4"
       inkscape:connector-curvature="0" /></g></svg>